<svg xmlns="http://www.w3.org/2000/svg" width="720" height="720" viewBox="0 0 720 720" preserveAspectRatio="xMidYMid slice">
<defs>

<linearGradient id="stoneBase" x1="0" y1="0" x2="0" y2="1">
  <stop offset="0" stop-color="#C0C8CE"/>
  <stop offset="0.35" stop-color="#D4DBE0"/>
  <stop offset="0.55" stop-color="#CBD2D7"/>
  <stop offset="1" stop-color="#B0BAC0"/>
</linearGradient>

<linearGradient id="auroraGreen" x1="0" y1="0" x2="1" y2="0.2">
  <stop offset="0" stop-color="#4A8B70" stop-opacity="0"/>
  <stop offset="0.25" stop-color="#5E9E82" stop-opacity="0.3"/>
  <stop offset="0.5" stop-color="#8FCAA8" stop-opacity="0.38"/>
  <stop offset="0.75" stop-color="#5E9E82" stop-opacity="0.3"/>
  <stop offset="1" stop-color="#4A8B70" stop-opacity="0"/>
</linearGradient>

<linearGradient id="auroraGold" x1="0" y1="0" x2="1" y2="-0.15">
  <stop offset="0" stop-color="#8A7530" stop-opacity="0"/>
  <stop offset="0.3" stop-color="#B8A555" stop-opacity="0.25"/>
  <stop offset="0.6" stop-color="#D8C070" stop-opacity="0.3"/>
  <stop offset="0.85" stop-color="#8A7530" stop-opacity="0.2"/>
  <stop offset="1" stop-color="#8A7530" stop-opacity="0"/>
</linearGradient>

<linearGradient id="auroraViolet" x1="0" y1="0" x2="1" y2="0.1">
  <stop offset="0" stop-color="#5A4A80" stop-opacity="0"/>
  <stop offset="0.4" stop-color="#7A6BA5" stop-opacity="0.22"/>
  <stop offset="0.7" stop-color="#8A7BB8" stop-opacity="0.25"/>
  <stop offset="1" stop-color="#5A4A80" stop-opacity="0"/>
</linearGradient>

<linearGradient id="mountainDark" x1="0" y1="0" x2="0" y2="1">
  <stop offset="0" stop-color="#2E3B48"/>
  <stop offset="1" stop-color="#4A5A68"/>
</linearGradient>


<symbol id="raven" viewBox="0 0 60 32">
  <path d="M 3 18 C 8 15, 13 12, 18 9 L 22 6 L 26 9 C 30 6, 34 3, 38 4
           L 41 7 L 45 5 C 48 4, 52 5, 54 8 L 58 13 L 54 15
           C 51 16, 47 17, 43 15 C 40 18, 36 20, 32 20
           C 26 22, 20 23, 14 22 C 10 22, 6 21, 3 18 Z"
        fill="#0F1820" opacity="0.82"/>
  <path d="M 20 13 L 32 12 L 43 12" stroke="#0F1820" stroke-width="0.7" fill="none" opacity="0.5"/>
</symbol>


<symbol id="longship" viewBox="0 0 120 48">
  <path d="M 8 32 Q 60 46, 112 32 L 105 38 Q 60 44, 15 38 Z" fill="#0F1820" opacity="0.82"/>
  <path d="M 8 32 Q 3 26, 5 16 Q 4 10, 10 6 Q 14 8, 13 14 Q 15 20, 12 28"
        fill="none" stroke="#0F1820" stroke-width="2.2" opacity="0.82"/>
  <path d="M 10 6 L 4 4 L 2 8 L 5 10 Z" fill="#0F1820" opacity="0.82"/>
  <circle cx="6" cy="6" r="0.8" fill="#B8A555" opacity="0.9"/>
  <path d="M 112 32 Q 117 26, 115 16 Q 116 10, 110 6 Q 106 8, 107 14 Q 105 20, 108 28"
        fill="none" stroke="#0F1820" stroke-width="2.2" opacity="0.82"/>
  <path d="M 110 6 L 116 4 L 118 8 L 115 10 Z" fill="#0F1820" opacity="0.82"/>
  <circle cx="114" cy="6" r="0.8" fill="#B8A555" opacity="0.9"/>
  <line x1="60" y1="32" x2="60" y2="4" stroke="#0F1820" stroke-width="1.8" opacity="0.82"/>
  <rect x="38" y="6" width="44" height="22" fill="#F0EFE8" opacity="0.6" stroke="#0F1820" stroke-width="1.5"/>
  <rect x="38" y="12" width="44" height="4" fill="#8A3020" opacity="0.6"/>
  <line x1="38" y1="18" x2="82" y2="18" stroke="#0F1820" stroke-width="0.5" opacity="0.5"/>
  <line x1="38" y1="24" x2="82" y2="24" stroke="#0F1820" stroke-width="0.5" opacity="0.5"/>
  <line x1="60" y1="6" x2="60" y2="28" stroke="#0F1820" stroke-width="0.7" opacity="0.6"/>
  <g>
    <circle cx="18" cy="31" r="2.4" fill="#B8A555" stroke="#0F1820" stroke-width="0.6" opacity="0.75"/>
    <circle cx="26" cy="32" r="2.4" fill="#8A3020" stroke="#0F1820" stroke-width="0.6" opacity="0.75"/>
    <circle cx="34" cy="32" r="2.4" fill="#B8A555" stroke="#0F1820" stroke-width="0.6" opacity="0.75"/>
    <circle cx="42" cy="33" r="2.4" fill="#8A3020" stroke="#0F1820" stroke-width="0.6" opacity="0.75"/>
    <circle cx="50" cy="33" r="2.4" fill="#B8A555" stroke="#0F1820" stroke-width="0.6" opacity="0.75"/>
    <circle cx="70" cy="33" r="2.4" fill="#8A3020" stroke="#0F1820" stroke-width="0.6" opacity="0.75"/>
    <circle cx="78" cy="33" r="2.4" fill="#B8A555" stroke="#0F1820" stroke-width="0.6" opacity="0.75"/>
    <circle cx="86" cy="32" r="2.4" fill="#8A3020" stroke="#0F1820" stroke-width="0.6" opacity="0.75"/>
    <circle cx="94" cy="32" r="2.4" fill="#B8A555" stroke="#0F1820" stroke-width="0.6" opacity="0.75"/>
    <circle cx="102" cy="31" r="2.4" fill="#8A3020" stroke="#0F1820" stroke-width="0.6" opacity="0.75"/>
  </g>
  <g stroke="#0F1820" stroke-width="0.9" opacity="0.55">
    <line x1="20" y1="37" x2="18" y2="44"/>
    <line x1="30" y1="38" x2="28" y2="45"/>
    <line x1="40" y1="39" x2="38" y2="46"/>
    <line x1="50" y1="39" x2="48" y2="46"/>
    <line x1="70" y1="39" x2="72" y2="46"/>
    <line x1="80" y1="39" x2="82" y2="46"/>
    <line x1="90" y1="38" x2="92" y2="45"/>
    <line x1="100" y1="37" x2="102" y2="44"/>
  </g>
</symbol>


<symbol id="standard" viewBox="0 0 60 90">
  <!-- Ground line -->
  <line x1="5" y1="82" x2="55" y2="82" stroke="#0F1820" stroke-width="1.2" opacity="0.55"/>
  <!-- Spear shaft (planted, slightly angled) -->
  <line x1="28" y1="82" x2="32" y2="8" stroke="#3D2A18" stroke-width="3" opacity="0.85"/>
  <!-- Spear head (leaf-shaped, viking style) -->
  <path d="M 32 8 L 28 -2 L 32 -14 L 36 -2 Z" fill="#4A5560" stroke="#0F1820" stroke-width="1.2" opacity="0.9"/>
  <path d="M 32 -14 L 32 -2" stroke="#0F1820" stroke-width="0.6" opacity="0.7"/>
  <!-- Cross-guard -->
  <line x1="26" y1="6" x2="38" y2="6" stroke="#3D2A18" stroke-width="1.8" opacity="0.85"/>
  <!-- Banner ribbon hanging from the crossguard -->
  <path d="M 26 6 L 20 30 L 24 34 L 22 42 L 18 46 L 16 42 L 20 34 L 16 30 L 22 6 Z"
        fill="#8A3020" opacity="0.75" stroke="#0F1820" stroke-width="0.6"/>
  <!-- Round shield leaning against the spear -->
  <ellipse cx="42" cy="70" rx="16" ry="16" fill="#3D4A5A" stroke="#0F1820" stroke-width="1.8" opacity="0.88"/>
  <ellipse cx="42" cy="70" rx="12" ry="12" fill="none" stroke="#B8A555" stroke-width="0.7" opacity="0.75"/>
  <circle cx="42" cy="70" r="3" fill="#0F1820" opacity="0.9"/>
  <circle cx="42" cy="70" r="1.5" fill="#B8A555" opacity="0.9"/>
  <!-- Shield division lines -->
  <line x1="42" y1="55" x2="42" y2="85" stroke="#0F1820" stroke-width="0.7" opacity="0.6"/>
  <line x1="27" y1="70" x2="57" y2="70" stroke="#0F1820" stroke-width="0.7" opacity="0.6"/>
</symbol>


<symbol id="sword" viewBox="0 0 30 90">
  <!-- Blade (long, tapering) -->
  <path d="M 13 10 L 17 10 L 16 62 L 15 65 L 14 62 Z"
        fill="#7A8590" stroke="#0F1820" stroke-width="1" opacity="0.9"/>
  <!-- Fuller (blood groove) -->
  <line x1="15" y1="14" x2="15" y2="58" stroke="#0F1820" stroke-width="0.5" opacity="0.6"/>
  <!-- Cross-guard -->
  <rect x="6" y="10" width="18" height="3" fill="#3D2A18" stroke="#0F1820" stroke-width="1" opacity="0.9"/>
  <!-- Handle grip -->
  <rect x="12" y="4" width="6" height="6" fill="#3D2A18" stroke="#0F1820" stroke-width="1" opacity="0.9"/>
  <line x1="13" y1="5" x2="13" y2="9" stroke="#0F1820" stroke-width="0.4" opacity="0.6"/>
  <line x1="15" y1="5" x2="15" y2="9" stroke="#0F1820" stroke-width="0.4" opacity="0.6"/>
  <line x1="17" y1="5" x2="17" y2="9" stroke="#0F1820" stroke-width="0.4" opacity="0.6"/>
  <!-- Pommel (round) -->
  <circle cx="15" cy="3" r="3" fill="#3D2A18" stroke="#0F1820" stroke-width="1" opacity="0.9"/>
  <circle cx="15" cy="3" r="1" fill="#B8A555" opacity="0.85"/>
  <!-- Stone base the sword is stuck in -->
  <ellipse cx="15" cy="68" rx="10" ry="3" fill="#4A5560" opacity="0.6"/>
  <path d="M 5 68 Q 10 78, 15 76 Q 20 78, 25 68 L 23 82 Q 15 84, 7 82 Z"
        fill="#4A5560" stroke="#0F1820" stroke-width="1" opacity="0.75"/>
</symbol>


<symbol id="axes" viewBox="0 0 120 120">
  <!-- Shield (bigger) -->
  <circle cx="60" cy="60" r="44" fill="#3D4A5A" stroke="#0F1820" stroke-width="3" opacity="0.88"/>
  <circle cx="60" cy="60" r="38" fill="none" stroke="#B8A555" stroke-width="1.3" opacity="0.75"/>
  <circle cx="60" cy="60" r="30" fill="none" stroke="#B8A555" stroke-width="0.8" opacity="0.6"/>
  <!-- Radial divisions -->
  <line x1="60" y1="20" x2="60" y2="100" stroke="#0F1820" stroke-width="1.2" opacity="0.65"/>
  <line x1="20" y1="60" x2="100" y2="60" stroke="#0F1820" stroke-width="1.2" opacity="0.65"/>
  <!-- Diagonal divisions -->
  <line x1="30" y1="30" x2="90" y2="90" stroke="#0F1820" stroke-width="0.7" opacity="0.5"/>
  <line x1="90" y1="30" x2="30" y2="90" stroke="#0F1820" stroke-width="0.7" opacity="0.5"/>
  <!-- Shield boss -->
  <circle cx="60" cy="60" r="9" fill="#0F1820" opacity="0.95"/>
  <circle cx="60" cy="60" r="5" fill="#B8A555" opacity="0.95"/>
  <circle cx="60" cy="60" r="2" fill="#0F1820" opacity="0.95"/>
  <!-- Left axe haft -->
  <line x1="12" y1="110" x2="94" y2="20" stroke="#3D2A18" stroke-width="4.5" opacity="0.9"/>
  <!-- Left axe head -->
  <path d="M 90 15 L 106 4 L 114 18 L 102 32 L 94 26 Z"
        fill="#4A5560" stroke="#0F1820" stroke-width="2" opacity="0.95"/>
  <path d="M 90 15 L 94 26 L 82 24 L 84 12 Z"
        fill="#4A5560" stroke="#0F1820" stroke-width="2" opacity="0.95"/>
  <!-- Left axe blade highlight -->
  <path d="M 102 8 L 108 16" stroke="#B8B5A0" stroke-width="0.8" opacity="0.6"/>
  <!-- Left pommel -->
  <circle cx="12" cy="110" r="3.5" fill="#3D2A18" stroke="#0F1820" stroke-width="1.2" opacity="0.9"/>
  <!-- Right axe haft -->
  <line x1="108" y1="110" x2="26" y2="20" stroke="#3D2A18" stroke-width="4.5" opacity="0.9"/>
  <!-- Right axe head -->
  <path d="M 30 15 L 14 4 L 6 18 L 18 32 L 26 26 Z"
        fill="#4A5560" stroke="#0F1820" stroke-width="2" opacity="0.95"/>
  <path d="M 30 15 L 26 26 L 38 24 L 36 12 Z"
        fill="#4A5560" stroke="#0F1820" stroke-width="2" opacity="0.95"/>
  <path d="M 18 8 L 12 16" stroke="#B8B5A0" stroke-width="0.8" opacity="0.6"/>
  <!-- Right pommel -->
  <circle cx="108" cy="110" r="3.5" fill="#3D2A18" stroke="#0F1820" stroke-width="1.2" opacity="0.9"/>
</symbol>


<symbol id="weaponRack" viewBox="0 0 240 50">
  <!-- Horizontal beam -->
  <rect x="0" y="30" width="240" height="6" fill="#3D2A18" stroke="#0F1820" stroke-width="1" opacity="0.85"/>
  <line x1="0" y1="32" x2="240" y2="32" stroke="#5A3820" stroke-width="0.5" opacity="0.5"/>
  <!-- Six shields hanging from the beam -->
  <g>
    <!-- Shield 1: red with gold center -->
    <circle cx="24" cy="20" r="14" fill="#8A3020" stroke="#0F1820" stroke-width="1.5" opacity="0.88"/>
    <circle cx="24" cy="20" r="10" fill="none" stroke="#B8A555" stroke-width="0.7" opacity="0.75"/>
    <circle cx="24" cy="20" r="3" fill="#B8A555" opacity="0.9"/>
    <line x1="24" y1="6" x2="24" y2="34" stroke="#0F1820" stroke-width="0.5" opacity="0.5"/>
    <line x1="10" y1="20" x2="38" y2="20" stroke="#0F1820" stroke-width="0.5" opacity="0.5"/>
    <!-- Shield 2: blue -->
    <circle cx="60" cy="20" r="14" fill="#2A3B58" stroke="#0F1820" stroke-width="1.5" opacity="0.88"/>
    <circle cx="60" cy="20" r="10" fill="none" stroke="#B8A555" stroke-width="0.7" opacity="0.75"/>
    <circle cx="60" cy="20" r="3" fill="#B8A555" opacity="0.9"/>
    <line x1="60" y1="6" x2="60" y2="34" stroke="#0F1820" stroke-width="0.5" opacity="0.5"/>
    <line x1="46" y1="20" x2="74" y2="20" stroke="#0F1820" stroke-width="0.5" opacity="0.5"/>
    <!-- Shield 3: dark green -->
    <circle cx="96" cy="20" r="14" fill="#3A5B40" stroke="#0F1820" stroke-width="1.5" opacity="0.88"/>
    <circle cx="96" cy="20" r="10" fill="none" stroke="#B8A555" stroke-width="0.7" opacity="0.75"/>
    <circle cx="96" cy="20" r="3" fill="#B8A555" opacity="0.9"/>
    <line x1="96" y1="6" x2="96" y2="34" stroke="#0F1820" stroke-width="0.5" opacity="0.5"/>
    <line x1="82" y1="20" x2="110" y2="20" stroke="#0F1820" stroke-width="0.5" opacity="0.5"/>
    <!-- Shield 4: red -->
    <circle cx="132" cy="20" r="14" fill="#8A3020" stroke="#0F1820" stroke-width="1.5" opacity="0.88"/>
    <circle cx="132" cy="20" r="10" fill="none" stroke="#B8A555" stroke-width="0.7" opacity="0.75"/>
    <circle cx="132" cy="20" r="3" fill="#B8A555" opacity="0.9"/>
    <line x1="132" y1="6" x2="132" y2="34" stroke="#0F1820" stroke-width="0.5" opacity="0.5"/>
    <line x1="118" y1="20" x2="146" y2="20" stroke="#0F1820" stroke-width="0.5" opacity="0.5"/>
    <!-- Shield 5: blue -->
    <circle cx="168" cy="20" r="14" fill="#2A3B58" stroke="#0F1820" stroke-width="1.5" opacity="0.88"/>
    <circle cx="168" cy="20" r="10" fill="none" stroke="#B8A555" stroke-width="0.7" opacity="0.75"/>
    <circle cx="168" cy="20" r="3" fill="#B8A555" opacity="0.9"/>
    <line x1="168" y1="6" x2="168" y2="34" stroke="#0F1820" stroke-width="0.5" opacity="0.5"/>
    <line x1="154" y1="20" x2="182" y2="20" stroke="#0F1820" stroke-width="0.5" opacity="0.5"/>
    <!-- Shield 6: dark gold -->
    <circle cx="204" cy="20" r="14" fill="#8A7530" stroke="#0F1820" stroke-width="1.5" opacity="0.88"/>
    <circle cx="204" cy="20" r="10" fill="none" stroke="#0F1820" stroke-width="0.7" opacity="0.75"/>
    <circle cx="204" cy="20" r="3" fill="#0F1820" opacity="0.9"/>
    <line x1="204" y1="6" x2="204" y2="34" stroke="#0F1820" stroke-width="0.5" opacity="0.5"/>
    <line x1="190" y1="20" x2="218" y2="20" stroke="#0F1820" stroke-width="0.5" opacity="0.5"/>
  </g>
  <!-- Two crossed spears behind the beam sticking up -->
  <line x1="45" y1="36" x2="30" y2="0" stroke="#3D2A18" stroke-width="2" opacity="0.75"/>
  <path d="M 30 0 L 27 -6 L 30 -12 L 33 -6 Z" fill="#4A5560" stroke="#0F1820" stroke-width="0.7" opacity="0.85"/>
  <line x1="195" y1="36" x2="210" y2="0" stroke="#3D2A18" stroke-width="2" opacity="0.75"/>
  <path d="M 210 0 L 207 -6 L 210 -12 L 213 -6 Z" fill="#4A5560" stroke="#0F1820" stroke-width="0.7" opacity="0.85"/>
</symbol>


<symbol id="knot" viewBox="0 0 100 100">
  <g stroke="#1A2530" stroke-width="3" fill="none" stroke-linecap="round" opacity="0.6">
    <path d="M 20 50 Q 20 20, 50 20 Q 80 20, 80 50 Q 80 80, 50 80 Q 20 80, 20 50 Z"/>
    <path d="M 50 20 L 50 38 Q 50 40, 52 40 L 62 40 Q 68 40, 68 50 Q 68 60, 62 60
             L 52 60 Q 50 60, 50 62 L 50 80"/>
    <path d="M 20 50 L 38 50 Q 40 50, 40 52 L 40 62 Q 40 68, 50 68 Q 60 68, 60 62
             L 60 52 Q 60 50, 62 50 L 80 50"/>
  </g>
  <g stroke="#B8A555" stroke-width="1" fill="none" stroke-linecap="round" opacity="0.55">
    <path d="M 20 50 Q 20 22, 48 22 Q 78 22, 78 50 Q 78 78, 50 78 Q 22 78, 22 50"/>
  </g>
</symbol>

</defs>
<rect width="720" height="720" fill="url(#stoneBase)"/>
<g fill="#8A9AA8" opacity="0.18">
<circle cx="448.5" cy="534.1" r="1.17"/>
<circle cx="678.6" cy="532.7" r="1.31"/>
<circle cx="20.9" cy="335.2" r="1.34"/>
<circle cx="467.3" cy="648.6" r="0.42"/>
<circle cx="337.7" cy="177.5" r="0.90"/>
<circle cx="413.2" cy="9.4" r="0.54"/>
<circle cx="201.2" cy="659.8" r="1.14"/>
<circle cx="114.9" cy="573.9" r="0.45"/>
<circle cx="444.6" cy="91.2" r="0.30"/>
<circle cx="627.4" cy="150.8" r="0.54"/>
<circle cx="707.3" cy="628.1" r="0.62"/>
<circle cx="692.3" cy="388.2" r="1.05"/>
<circle cx="147.4" cy="677.5" r="1.06"/>
<circle cx="695.9" cy="643.5" r="0.63"/>
<circle cx="260.1" cy="119.5" r="0.46"/>
<circle cx="46.9" cy="217.0" r="0.96"/>
<circle cx="2.4" cy="488.1" r="0.67"/>
<circle cx="223.2" cy="589.3" r="0.83"/>
<circle cx="227.4" cy="346.5" r="1.08"/>
<circle cx="41.0" cy="702.1" r="0.33"/>
<circle cx="539.9" cy="608.3" r="0.32"/>
<circle cx="567.2" cy="263.7" r="0.94"/>
<circle cx="6.5" cy="33.6" r="0.50"/>
<circle cx="687.7" cy="141.5" r="1.13"/>
<circle cx="669.4" cy="678.3" r="0.68"/>
<circle cx="255.5" cy="377.8" r="1.15"/>
<circle cx="77.8" cy="538.8" r="1.18"/>
<circle cx="619.0" cy="26.4" r="1.34"/>
<circle cx="65.6" cy="245.3" r="0.97"/>
<circle cx="661.0" cy="244.8" r="1.32"/>
<circle cx="392.5" cy="225.0" r="0.65"/>
<circle cx="127.8" cy="56.3" r="0.46"/>
<circle cx="496.2" cy="717.6" r="0.48"/>
<circle cx="35.0" cy="710.4" r="0.89"/>
<circle cx="292.2" cy="170.9" r="0.95"/>
<circle cx="594.9" cy="328.1" r="0.76"/>
<circle cx="40.1" cy="659.6" r="0.34"/>
<circle cx="355.4" cy="603.7" r="0.44"/>
<circle cx="526.8" cy="683.9" r="0.99"/>
<circle cx="567.4" cy="76.8" r="0.78"/>
<circle cx="107.5" cy="608.2" r="0.62"/>
<circle cx="326.3" cy="719.5" r="1.24"/>
<circle cx="702.7" cy="326.5" r="0.84"/>
<circle cx="525.2" cy="344.9" r="0.62"/>
<circle cx="290.7" cy="105.5" r="0.71"/>
<circle cx="711.6" cy="691.1" r="0.99"/>
<circle cx="359.5" cy="243.7" r="0.40"/>
<circle cx="196.1" cy="563.1" r="1.25"/>
<circle cx="260.2" cy="565.9" r="1.15"/>
<circle cx="500.1" cy="478.1" r="1.14"/>
<circle cx="261.7" cy="507.2" r="0.61"/>
<circle cx="349.7" cy="554.2" r="1.06"/>
<circle cx="211.6" cy="680.8" r="1.01"/>
<circle cx="418.1" cy="8.3" r="0.90"/>
<circle cx="180.5" cy="483.6" r="0.81"/>
<circle cx="588.0" cy="466.2" r="1.18"/>
<circle cx="250.5" cy="463.7" r="1.11"/>
<circle cx="596.3" cy="252.0" r="1.23"/>
<circle cx="626.3" cy="495.6" r="1.37"/>
<circle cx="688.7" cy="373.1" r="0.88"/>
<circle cx="119.6" cy="602.4" r="1.33"/>
<circle cx="343.6" cy="497.8" r="1.09"/>
<circle cx="525.9" cy="123.7" r="1.16"/>
<circle cx="418.2" cy="479.2" r="0.76"/>
<circle cx="449.1" cy="557.8" r="1.00"/>
<circle cx="518.7" cy="19.9" r="0.48"/>
<circle cx="317.6" cy="468.1" r="0.54"/>
<circle cx="493.9" cy="454.2" r="0.35"/>
<circle cx="339.5" cy="162.9" r="0.36"/>
<circle cx="96.1" cy="228.5" r="0.50"/>
<circle cx="139.2" cy="25.7" r="0.81"/>
<circle cx="273.8" cy="440.5" r="0.95"/>
<circle cx="171.2" cy="650.3" r="0.30"/>
<circle cx="291.9" cy="200.5" r="0.75"/>
<circle cx="82.9" cy="598.6" r="0.71"/>
<circle cx="26.0" cy="441.8" r="0.40"/>
<circle cx="392.6" cy="244.3" r="0.94"/>
<circle cx="690.0" cy="589.3" r="0.76"/>
<circle cx="585.4" cy="462.5" r="0.71"/>
<circle cx="102.3" cy="429.1" r="0.92"/>
<circle cx="689.2" cy="697.0" r="0.97"/>
<circle cx="252.8" cy="643.3" r="0.30"/>
<circle cx="77.7" cy="407.4" r="0.98"/>
<circle cx="101.3" cy="453.2" r="1.28"/>
<circle cx="270.6" cy="310.8" r="0.55"/>
<circle cx="209.9" cy="700.2" r="0.72"/>
<circle cx="692.0" cy="657.9" r="0.96"/>
<circle cx="187.1" cy="706.3" r="0.85"/>
<circle cx="299.2" cy="229.8" r="1.38"/>
<circle cx="354.1" cy="206.2" r="0.82"/>
<circle cx="87.8" cy="447.6" r="0.79"/>
<circle cx="211.0" cy="562.8" r="1.21"/>
<circle cx="9.5" cy="383.4" r="0.60"/>
<circle cx="673.4" cy="563.0" r="0.57"/>
<circle cx="192.7" cy="111.4" r="1.39"/>
<circle cx="211.1" cy="437.8" r="0.82"/>
<circle cx="464.3" cy="434.8" r="1.12"/>
<circle cx="85.1" cy="547.5" r="0.63"/>
<circle cx="384.1" cy="242.0" r="0.63"/>
<circle cx="381.5" cy="334.3" r="0.70"/>
<circle cx="536.4" cy="425.4" r="0.34"/>
<circle cx="181.7" cy="328.0" r="1.31"/>
<circle cx="639.3" cy="392.8" r="0.32"/>
<circle cx="560.4" cy="308.0" r="0.93"/>
<circle cx="509.9" cy="455.2" r="0.83"/>
<circle cx="656.4" cy="277.5" r="0.73"/>
<circle cx="613.4" cy="141.5" r="0.63"/>
<circle cx="597.6" cy="47.6" r="1.22"/>
<circle cx="500.1" cy="311.6" r="0.61"/>
<circle cx="562.1" cy="655.7" r="0.46"/>
<circle cx="344.5" cy="395.3" r="0.85"/>
<circle cx="238.1" cy="110.5" r="0.94"/>
<circle cx="584.5" cy="49.3" r="0.55"/>
<circle cx="590.1" cy="570.1" r="1.03"/>
<circle cx="18.4" cy="520.3" r="1.38"/>
<circle cx="718.8" cy="504.9" r="0.35"/>
<circle cx="606.3" cy="157.8" r="1.01"/>
<circle cx="685.6" cy="513.0" r="0.45"/>
<circle cx="210.6" cy="661.0" r="0.46"/>
<circle cx="439.6" cy="298.0" r="0.48"/>
<circle cx="448.1" cy="31.4" r="0.42"/>
<circle cx="273.0" cy="51.8" r="0.36"/>
<circle cx="414.2" cy="534.5" r="1.27"/>
<circle cx="96.7" cy="310.8" r="0.65"/>
<circle cx="432.2" cy="352.5" r="1.33"/>
<circle cx="269.4" cy="40.1" r="1.07"/>
<circle cx="108.8" cy="454.6" r="0.86"/>
<circle cx="655.5" cy="399.5" r="0.98"/>
<circle cx="189.5" cy="397.2" r="0.58"/>
<circle cx="540.4" cy="372.2" r="0.45"/>
<circle cx="168.8" cy="267.3" r="1.11"/>
<circle cx="129.1" cy="513.6" r="1.02"/>
<circle cx="61.4" cy="480.9" r="0.40"/>
<circle cx="89.8" cy="427.7" r="0.56"/>
<circle cx="631.4" cy="345.9" r="0.66"/>
<circle cx="573.5" cy="21.2" r="1.10"/>
<circle cx="38.6" cy="108.6" r="1.35"/>
<circle cx="490.4" cy="160.6" r="0.43"/>
<circle cx="700.3" cy="478.8" r="1.20"/>
<circle cx="100.6" cy="449.9" r="0.69"/>
<circle cx="169.2" cy="240.0" r="0.98"/>
<circle cx="251.0" cy="277.7" r="0.45"/>
<circle cx="598.4" cy="466.5" r="1.18"/>
<circle cx="312.0" cy="613.1" r="0.87"/>
<circle cx="426.7" cy="412.7" r="1.11"/>
<circle cx="284.8" cy="69.8" r="0.34"/>
<circle cx="145.7" cy="28.4" r="1.28"/>
<circle cx="346.3" cy="547.5" r="0.30"/>
<circle cx="338.5" cy="640.6" r="0.98"/>
<circle cx="308.6" cy="335.2" r="0.41"/>
<circle cx="111.4" cy="114.5" r="0.71"/>
<circle cx="277.7" cy="633.8" r="0.47"/>
<circle cx="182.9" cy="199.8" r="0.48"/>
<circle cx="206.7" cy="169.3" r="0.83"/>
<circle cx="23.1" cy="665.7" r="0.71"/>
<circle cx="675.3" cy="495.2" r="1.04"/>
<circle cx="339.6" cy="680.7" r="0.43"/>
<circle cx="481.4" cy="209.6" r="1.04"/>
<circle cx="525.1" cy="117.5" r="0.52"/>
<circle cx="17.9" cy="165.9" r="0.39"/>
<circle cx="288.8" cy="701.0" r="0.70"/>
<circle cx="224.5" cy="337.0" r="0.61"/>
<circle cx="527.3" cy="516.9" r="0.48"/>
<circle cx="173.2" cy="484.0" r="1.33"/>
<circle cx="465.0" cy="310.1" r="1.37"/>
<circle cx="4.5" cy="43.8" r="1.16"/>
<circle cx="295.3" cy="32.4" r="0.90"/>
<circle cx="712.5" cy="373.6" r="0.69"/>
<circle cx="67.5" cy="51.3" r="1.29"/>
<circle cx="353.6" cy="673.7" r="0.36"/>
<circle cx="175.3" cy="36.3" r="0.74"/>
<circle cx="43.3" cy="183.9" r="0.75"/>
<circle cx="220.3" cy="37.0" r="0.34"/>
<circle cx="699.6" cy="129.2" r="0.86"/>
<circle cx="289.7" cy="382.5" r="0.39"/>
<circle cx="226.0" cy="77.7" r="0.90"/>
<circle cx="663.3" cy="430.8" r="1.24"/>
<circle cx="154.4" cy="12.5" r="0.89"/>
<circle cx="350.3" cy="411.4" r="0.71"/>
<circle cx="450.1" cy="522.5" r="1.30"/>
</g>

<path d="M 0 80 Q 180 30, 360 90 T 720 70 L 720 140 Q 540 190, 360 145 T 0 155 Z" fill="url(#auroraGreen)"/>
<path d="M 0 130 Q 180 90, 380 140 T 720 120 L 720 170 Q 500 210, 300 175 T 0 190 Z" fill="url(#auroraViolet)"/>
<path d="M 0 175 Q 200 145, 400 185 T 720 165 L 720 210 Q 500 245, 300 220 T 0 230 Z" fill="url(#auroraGold)"/>

<g stroke="#B8A555" stroke-width="0.7" fill="none" opacity="0.28" stroke-linecap="round">
<path d="M 80 40 Q 72 100, 85 190"/>
<path d="M 98 60 Q 92 130, 102 200"/>
<path d="M 190 40 Q 182 100, 195 190"/>
<path d="M 208 60 Q 202 130, 212 200"/>
<path d="M 340 40 Q 332 100, 345 190"/>
<path d="M 358 60 Q 352 130, 362 200"/>
<path d="M 480 40 Q 472 100, 485 190"/>
<path d="M 498 60 Q 492 130, 502 200"/>
<path d="M 610 40 Q 602 100, 615 190"/>
<path d="M 628 60 Q 622 130, 632 200"/>
</g>
<g stroke="#8FCAA8" stroke-width="0.6" fill="none" opacity="0.35" stroke-linecap="round">
<path d="M 140 50 Q 135 120, 148 195"/>
<path d="M 260 50 Q 255 120, 268 195"/>
<path d="M 420 50 Q 415 120, 428 195"/>
<path d="M 550 50 Q 545 120, 558 195"/>
</g>

<g stroke="#2A3B48" stroke-width="6" fill="none" opacity="0.55" stroke-linecap="round">
  <path d="M 360 720 Q 355 620, 362 520 Q 368 420, 358 340 Q 355 280, 360 220"/>
</g>
<g stroke="#3A4B58" stroke-width="2" fill="none" opacity="0.5" stroke-linecap="round">
  <path d="M 356 720 Q 351 620, 358 520 Q 364 420, 354 340 Q 351 280, 356 220"/>
</g>
<g stroke="#2A3B48" stroke-width="3" fill="none" opacity="0.5" stroke-linecap="round">
  <path d="M 360 720 Q 320 685, 260 690 Q 200 695, 140 680 Q 80 665, 20 670"/>
  <path d="M 360 720 Q 400 685, 460 690 Q 520 695, 580 680 Q 640 665, 700 670"/>
  <path d="M 360 720 Q 340 690, 290 700 Q 240 710, 180 700"/>
  <path d="M 360 720 Q 380 690, 430 700 Q 480 710, 540 700"/>
</g>
<g stroke="#2A3B48" stroke-width="4" fill="none" opacity="0.55" stroke-linecap="round">
  <path d="M 360 220 Q 300 190, 240 175 Q 180 160, 120 130"/>
  <path d="M 360 220 Q 420 190, 480 175 Q 540 160, 600 130"/>
  <path d="M 360 220 Q 330 175, 290 130 Q 260 90, 220 55"/>
  <path d="M 360 220 Q 390 175, 430 130 Q 460 90, 500 55"/>
  <path d="M 360 220 Q 358 170, 355 110 Q 355 70, 360 30"/>
</g>
<g stroke="#2A3B48" stroke-width="2.5" fill="none" opacity="0.45" stroke-linecap="round">
  <path d="M 240 175 Q 200 165, 160 145"/>
  <path d="M 480 175 Q 520 165, 560 145"/>
  <path d="M 290 130 Q 260 105, 235 85"/>
  <path d="M 430 130 Q 460 105, 485 85"/>
</g>
<g fill="#4A8B70" opacity="0.55">
  <ellipse cx="120" cy="130" rx="5" ry="7"/>
  <ellipse cx="600" cy="130" rx="5" ry="7"/>
  <ellipse cx="220" cy="55" rx="5" ry="7"/>
  <ellipse cx="500" cy="55" rx="5" ry="7"/>
  <ellipse cx="360" cy="30" rx="5" ry="7"/>
  <ellipse cx="160" cy="145" rx="4" ry="5"/>
  <ellipse cx="560" cy="145" rx="4" ry="5"/>
  <ellipse cx="235" cy="85" rx="4" ry="5"/>
  <ellipse cx="485" cy="85" rx="4" ry="5"/>
</g>
<g fill="#B8A555" opacity="0.5">
  <ellipse cx="140" cy="120" rx="3" ry="4"/>
  <ellipse cx="580" cy="120" rx="3" ry="4"/>
  <ellipse cx="200" cy="45" rx="3" ry="4"/>
  <ellipse cx="520" cy="45" rx="3" ry="4"/>
</g>


<g fill="#5A6A78" opacity="0.5">
  <path d="M 0 290 L 60 260 L 120 275 L 180 250 L 240 270 L 300 255 L 360 275 L 420 260 L 480 285
           L 540 265 L 600 285 L 660 270 L 720 295 L 720 320 L 0 320 Z"/>
</g>
<g fill="url(#mountainDark)" opacity="0.7">
  <path d="M 0 310 L 40 260 L 75 275 L 110 225 L 155 260 L 200 230 L 260 200 L 310 235 L 360 220
           L 410 250 L 460 225 L 510 260 L 560 235 L 610 270 L 660 245 L 720 285 L 720 340 L 0 340 Z"/>
</g>
<g fill="#F0F4F8" opacity="0.7">
  <path d="M 105 232 L 110 225 L 120 240 L 112 245 Z"/>
  <path d="M 195 237 L 200 230 L 210 245 L 202 250 Z"/>
  <path d="M 255 207 L 260 200 L 270 215 L 262 220 Z"/>
  <path d="M 455 232 L 460 225 L 470 240 L 462 245 Z"/>
  <path d="M 605 277 L 610 270 L 620 285 L 612 290 Z"/>
  <path d="M 355 227 L 360 220 L 368 235 L 361 240 Z"/>
</g>

<g opacity="0.75">
<use href="#knot" x="-25" y="400" width="100" height="100"/>
<use href="#knot" x="75" y="400" width="100" height="100"/>
<use href="#knot" x="175" y="400" width="100" height="100"/>
<use href="#knot" x="275" y="400" width="100" height="100"/>
<use href="#knot" x="375" y="400" width="100" height="100"/>
<use href="#knot" x="475" y="400" width="100" height="100"/>
<use href="#knot" x="575" y="400" width="100" height="100"/>
<use href="#knot" x="675" y="400" width="100" height="100"/>
<use href="#knot" x="25" y="540" width="100" height="100"/>
<use href="#knot" x="125" y="540" width="100" height="100"/>
<use href="#knot" x="225" y="540" width="100" height="100"/>
<use href="#knot" x="325" y="540" width="100" height="100"/>
<use href="#knot" x="425" y="540" width="100" height="100"/>
<use href="#knot" x="525" y="540" width="100" height="100"/>
<use href="#knot" x="625" y="540" width="100" height="100"/>
</g>

<line x1="0" y1="395" x2="720" y2="395" stroke="#1A2530" stroke-width="1.5" opacity="0.5"/>
<line x1="0" y1="397" x2="720" y2="397" stroke="#B8A555" stroke-width="0.5" opacity="0.35"/>
<line x1="0" y1="505" x2="720" y2="505" stroke="#1A2530" stroke-width="0.8" opacity="0.35"/>
<line x1="0" y1="645" x2="720" y2="645" stroke="#1A2530" stroke-width="1.5" opacity="0.5"/>
<line x1="0" y1="647" x2="720" y2="647" stroke="#B8A555" stroke-width="0.5" opacity="0.35"/>

<use href="#raven" x="80" y="85" width="60" height="32"/>
<use href="#raven" x="560" y="60" width="55" height="30"/>
<use href="#raven" x="290" y="130" width="45" height="24"/>
<use href="#raven" x="420" y="115" width="50" height="27"/>
<use href="#longship" x="420" y="240" width="140" height="56"/>
<use href="#standard" x="150" y="215" width="80" height="105"/>
<use href="#sword" x="605" y="220" width="40" height="105"/>
<use href="#axes" x="30" y="580" width="110" height="110"/>
<use href="#weaponRack" x="180" y="670" width="360" height="50"/>
<use href="#longship" x="570" y="655" width="130" height="52"/>

<g stroke="#1A2530" stroke-width="1.5" fill="none" opacity="0.35">
  <path d="M 10 10 L 20 10 M 10 10 L 10 20"/>
  <path d="M 710 10 L 700 10 M 710 10 L 710 20"/>
  <path d="M 10 710 L 20 710 M 10 710 L 10 700"/>
  <path d="M 710 710 L 700 710 M 710 710 L 710 700"/>
</g>

</svg>
