<svg xmlns="http://www.w3.org/2000/svg" width="400" height="400" viewBox="0 0 400 400">
<defs>

<linearGradient id="plankBase" x1="0" y1="0" x2="0" y2="1">
  <stop offset="0" stop-color="#4E3018"/>
  <stop offset="0.5" stop-color="#6B4428"/>
  <stop offset="1" stop-color="#4E3018"/>
</linearGradient>

<linearGradient id="plankAlt" x1="0" y1="0" x2="0" y2="1">
  <stop offset="0" stop-color="#5A3820"/>
  <stop offset="0.5" stop-color="#734828"/>
  <stop offset="1" stop-color="#5A3820"/>
</linearGradient>

<linearGradient id="ironGrad" x1="0" y1="0" x2="0" y2="1">
  <stop offset="0" stop-color="#4A4A50"/>
  <stop offset="0.5" stop-color="#6A6A72"/>
  <stop offset="1" stop-color="#2A2A30"/>
</linearGradient>

<pattern id="floor" x="0" y="0" width="400" height="400" patternUnits="userSpaceOnUse">
<rect x="0" y="0" width="400" height="80" fill="url(#plankBase)"/>
<rect x="0" y="80" width="400" height="80" fill="url(#plankAlt)"/>
<rect x="0" y="160" width="400" height="80" fill="url(#plankBase)"/>
<rect x="0" y="240" width="400" height="80" fill="url(#plankAlt)"/>
<rect x="0" y="320" width="400" height="80" fill="url(#plankBase)"/>
<path d="M 0 2.54 L 8 2.77 L 16 2.99 L 24 3.21 L 32 3.41 L 40 3.59 L 48 3.74 L 56 3.88 L 64 3.98 L 72 4.05 L 80 4.09 L 88 4.10 L 96 4.08 L 104 4.03 L 112 3.95 L 120 3.84 L 128 3.71 L 136 3.56 L 144 3.40 L 152 3.22 L 160 3.04 L 168 2.86 L 176 2.69 L 184 2.52 L 192 2.36 L 200 2.23 L 208 2.11 L 216 2.02 L 224 1.95 L 232 1.92 L 240 1.91 L 248 1.92 L 256 1.97 L 264 2.04 L 272 2.13 L 280 2.25 L 288 2.38 L 296 2.53 L 304 2.69 L 312 2.85 L 320 3.01 L 328 3.16 L 336 3.31 L 344 3.44 L 352 3.55 L 360 3.64 L 368 3.71 L 376 3.75 L 384 3.76 L 392 3.74 L 400 3.69" stroke="#2E1808" stroke-width="0.5178512084652228" fill="none" opacity="0.13236387471882594" stroke-linecap="round"/>
<path d="M 0 13.55 L 8 13.78 L 16 14.01 L 24 14.22 L 32 14.42 L 40 14.60 L 48 14.76 L 56 14.89 L 64 15.00 L 72 15.07 L 80 15.11 L 88 15.12 L 96 15.10 L 104 15.04 L 112 14.96 L 120 14.85 L 128 14.72 L 136 14.57 L 144 14.41 L 152 14.24 L 160 14.06 L 168 13.88 L 176 13.70 L 184 13.53 L 192 13.38 L 200 13.24 L 208 13.13 L 216 13.04 L 224 12.97 L 232 12.93 L 240 12.92 L 248 12.94 L 256 12.98 L 264 13.05 L 272 13.15 L 280 13.26 L 288 13.40 L 296 13.54 L 304 13.70 L 312 13.86 L 320 14.02 L 328 14.18 L 336 14.32 L 344 14.45 L 352 14.57 L 360 14.66 L 368 14.73 L 376 14.77 L 384 14.78 L 392 14.75 L 400 14.70" stroke="#2E1808" stroke-width="0.4337330688578162" fill="none" opacity="0.13525600265360938" stroke-linecap="round"/>
<path d="M 0 21.20 L 8 21.42 L 16 21.65 L 24 21.86 L 32 22.06 L 40 22.24 L 48 22.40 L 56 22.54 L 64 22.64 L 72 22.71 L 80 22.75 L 88 22.76 L 96 22.74 L 104 22.69 L 112 22.61 L 120 22.50 L 128 22.37 L 136 22.22 L 144 22.05 L 152 21.88 L 160 21.70 L 168 21.52 L 176 21.34 L 184 21.18 L 192 21.02 L 200 20.89 L 208 20.77 L 216 20.68 L 224 20.61 L 232 20.57 L 240 20.56 L 248 20.58 L 256 20.63 L 264 20.70 L 272 20.79 L 280 20.91 L 288 21.04 L 296 21.19 L 304 21.34 L 312 21.50 L 320 21.66 L 328 21.82 L 336 21.97 L 344 22.10 L 352 22.21 L 360 22.30 L 368 22.37 L 376 22.41 L 384 22.42 L 392 22.40 L 400 22.35" stroke="#2E1808" stroke-width="0.44422036628808353" fill="none" opacity="0.20333517339345125" stroke-linecap="round"/>
<path d="M 0 31.72 L 8 31.95 L 16 32.18 L 24 32.39 L 32 32.59 L 40 32.77 L 48 32.93 L 56 33.06 L 64 33.17 L 72 33.24 L 80 33.28 L 88 33.29 L 96 33.27 L 104 33.21 L 112 33.13 L 120 33.02 L 128 32.89 L 136 32.74 L 144 32.58 L 152 32.41 L 160 32.23 L 168 32.05 L 176 31.87 L 184 31.70 L 192 31.55 L 200 31.41 L 208 31.30 L 216 31.21 L 224 31.14 L 232 31.10 L 240 31.09 L 248 31.11 L 256 31.15 L 264 31.22 L 272 31.32 L 280 31.44 L 288 31.57 L 296 31.71 L 304 31.87 L 312 32.03 L 320 32.19 L 328 32.35 L 336 32.49 L 344 32.62 L 352 32.74 L 360 32.83 L 368 32.90 L 376 32.94 L 384 32.95 L 392 32.93 L 400 32.87" stroke="#2E1808" stroke-width="0.44097355730347904" fill="none" opacity="0.19283833210667894" stroke-linecap="round"/>
<path d="M 0 40.11 L 8 40.34 L 16 40.56 L 24 40.78 L 32 40.98 L 40 41.16 L 48 41.31 L 56 41.45 L 64 41.55 L 72 41.62 L 80 41.66 L 88 41.67 L 96 41.65 L 104 41.60 L 112 41.52 L 120 41.41 L 128 41.28 L 136 41.13 L 144 40.97 L 152 40.79 L 160 40.61 L 168 40.43 L 176 40.26 L 184 40.09 L 192 39.94 L 200 39.80 L 208 39.68 L 216 39.59 L 224 39.52 L 232 39.49 L 240 39.48 L 248 39.49 L 256 39.54 L 264 39.61 L 272 39.70 L 280 39.82 L 288 39.95 L 296 40.10 L 304 40.26 L 312 40.42 L 320 40.58 L 328 40.73 L 336 40.88 L 344 41.01 L 352 41.12 L 360 41.21 L 368 41.28 L 376 41.32 L 384 41.33 L 392 41.31 L 400 41.26" stroke="#2E1808" stroke-width="0.5237710249534152" fill="none" opacity="0.16925260229310118" stroke-linecap="round"/>
<path d="M 0 50.49 L 8 50.72 L 16 50.94 L 24 51.16 L 32 51.36 L 40 51.54 L 48 51.70 L 56 51.83 L 64 51.93 L 72 52.01 L 80 52.05 L 88 52.06 L 96 52.03 L 104 51.98 L 112 51.90 L 120 51.79 L 128 51.66 L 136 51.51 L 144 51.35 L 152 51.17 L 160 50.99 L 168 50.81 L 176 50.64 L 184 50.47 L 192 50.32 L 200 50.18 L 208 50.06 L 216 49.97 L 224 49.91 L 232 49.87 L 240 49.86 L 248 49.88 L 256 49.92 L 264 49.99 L 272 50.09 L 280 50.20 L 288 50.34 L 296 50.48 L 304 50.64 L 312 50.80 L 320 50.96 L 328 51.11 L 336 51.26 L 344 51.39 L 352 51.50 L 360 51.60 L 368 51.66 L 376 51.70 L 384 51.71 L 392 51.69 L 400 51.64" stroke="#2E1808" stroke-width="0.4061099375119386" fill="none" opacity="0.13024225281921253" stroke-linecap="round"/>
<path d="M 0 59.32 L 8 59.55 L 16 59.77 L 24 59.99 L 32 60.19 L 40 60.37 L 48 60.53 L 56 60.66 L 64 60.76 L 72 60.84 L 80 60.88 L 88 60.89 L 96 60.86 L 104 60.81 L 112 60.73 L 120 60.62 L 128 60.49 L 136 60.34 L 144 60.18 L 152 60.00 L 160 59.82 L 168 59.64 L 176 59.47 L 184 59.30 L 192 59.15 L 200 59.01 L 208 58.90 L 216 58.80 L 224 58.74 L 232 58.70 L 240 58.69 L 248 58.71 L 256 58.75 L 264 58.82 L 272 58.92 L 280 59.03 L 288 59.17 L 296 59.31 L 304 59.47 L 312 59.63 L 320 59.79 L 328 59.94 L 336 60.09 L 344 60.22 L 352 60.34 L 360 60.43 L 368 60.49 L 376 60.53 L 384 60.54 L 392 60.52 L 400 60.47" stroke="#2E1808" stroke-width="0.4595492896570139" fill="none" opacity="0.1643240392772008" stroke-linecap="round"/>
<path d="M 0 66.49 L 8 66.72 L 16 66.94 L 24 67.16 L 32 67.36 L 40 67.54 L 48 67.70 L 56 67.83 L 64 67.93 L 72 68.01 L 80 68.05 L 88 68.06 L 96 68.04 L 104 67.98 L 112 67.90 L 120 67.79 L 128 67.66 L 136 67.51 L 144 67.35 L 152 67.18 L 160 67.00 L 168 66.82 L 176 66.64 L 184 66.47 L 192 66.32 L 200 66.18 L 208 66.07 L 216 65.97 L 224 65.91 L 232 65.87 L 240 65.86 L 248 65.88 L 256 65.92 L 264 65.99 L 272 66.09 L 280 66.20 L 288 66.34 L 296 66.48 L 304 66.64 L 312 66.80 L 320 66.96 L 328 67.12 L 336 67.26 L 344 67.39 L 352 67.51 L 360 67.60 L 368 67.67 L 376 67.70 L 384 67.71 L 392 67.69 L 400 67.64" stroke="#2E1808" stroke-width="0.6865338539627865" fill="none" opacity="0.16013841946165436" stroke-linecap="round"/>
<path d="M 0 25.52 L 8 25.75 L 16 25.97 L 24 26.19 L 32 26.39 L 40 26.57 L 48 26.72 L 56 26.86 L 64 26.96 L 72 27.03 L 80 27.07 L 88 27.08 L 96 27.06 L 104 27.01 L 112 26.93 L 120 26.82 L 128 26.69 L 136 26.54 L 144 26.38 L 152 26.20 L 160 26.02 L 168 25.84 L 176 25.67 L 184 25.50 L 192 25.34 L 200 25.21 L 208 25.09 L 216 25.00 L 224 24.93 L 232 24.90 L 240 24.89 L 248 24.90 L 256 24.95 L 264 25.02 L 272 25.11 L 280 25.23 L 288 25.36 L 296 25.51 L 304 25.67 L 312 25.83 L 320 25.99 L 328 26.14 L 336 26.29 L 344 26.42 L 352 26.53 L 360 26.62 L 368 26.69 L 376 26.73 L 384 26.74 L 392 26.72 L 400 26.67" stroke="#1F0F04" stroke-width="1.0" fill="none" opacity="0.35" stroke-linecap="round"/>
<path d="M 0 25.85 L 8 26.08 L 16 26.30 L 24 26.51 L 32 26.71 L 40 26.90 L 48 27.05 L 56 27.19 L 64 27.29 L 72 27.36 L 80 27.40 L 88 27.41 L 96 27.39 L 104 27.34 L 112 27.26 L 120 27.15 L 128 27.02 L 136 26.87 L 144 26.70 L 152 26.53 L 160 26.35 L 168 26.17 L 176 26.00 L 184 25.83 L 192 25.67 L 200 25.54 L 208 25.42 L 216 25.33 L 224 25.26 L 232 25.23 L 240 25.21 L 248 25.23 L 256 25.28 L 264 25.35 L 272 25.44 L 280 25.56 L 288 25.69 L 296 25.84 L 304 26.00 L 312 26.16 L 320 26.32 L 328 26.47 L 336 26.62 L 344 26.75 L 352 26.86 L 360 26.95 L 368 27.02 L 376 27.06 L 384 27.07 L 392 27.05 L 400 27.00" stroke="#1F0F04" stroke-width="1.0" fill="none" opacity="0.35" stroke-linecap="round"/>
<path d="M 0 84.25 L 8 84.48 L 16 84.71 L 24 84.92 L 32 85.12 L 40 85.30 L 48 85.46 L 56 85.59 L 64 85.70 L 72 85.77 L 80 85.81 L 88 85.82 L 96 85.80 L 104 85.75 L 112 85.66 L 120 85.56 L 128 85.43 L 136 85.28 L 144 85.11 L 152 84.94 L 160 84.76 L 168 84.58 L 176 84.40 L 184 84.24 L 192 84.08 L 200 83.95 L 208 83.83 L 216 83.74 L 224 83.67 L 232 83.63 L 240 83.62 L 248 83.64 L 256 83.69 L 264 83.76 L 272 83.85 L 280 83.97 L 288 84.10 L 296 84.25 L 304 84.40 L 312 84.56 L 320 84.72 L 328 84.88 L 336 85.03 L 344 85.16 L 352 85.27 L 360 85.36 L 368 85.43 L 376 85.47 L 384 85.48 L 392 85.46 L 400 85.41" stroke="#2E1808" stroke-width="0.6861229189892787" fill="none" opacity="0.18021196072254944" stroke-linecap="round"/>
<path d="M 0 94.02 L 8 94.25 L 16 94.47 L 24 94.68 L 32 94.88 L 40 95.07 L 48 95.22 L 56 95.36 L 64 95.46 L 72 95.53 L 80 95.57 L 88 95.58 L 96 95.56 L 104 95.51 L 112 95.43 L 120 95.32 L 128 95.19 L 136 95.04 L 144 94.87 L 152 94.70 L 160 94.52 L 168 94.34 L 176 94.16 L 184 94.00 L 192 93.84 L 200 93.71 L 208 93.59 L 216 93.50 L 224 93.43 L 232 93.39 L 240 93.38 L 248 93.40 L 256 93.45 L 264 93.52 L 272 93.61 L 280 93.73 L 288 93.86 L 296 94.01 L 304 94.16 L 312 94.33 L 320 94.49 L 328 94.64 L 336 94.79 L 344 94.92 L 352 95.03 L 360 95.12 L 368 95.19 L 376 95.23 L 384 95.24 L 392 95.22 L 400 95.17" stroke="#2E1808" stroke-width="0.461157343121525" fill="none" opacity="0.15910545226053494" stroke-linecap="round"/>
<path d="M 0 103.01 L 8 103.24 L 16 103.46 L 24 103.68 L 32 103.88 L 40 104.06 L 48 104.22 L 56 104.35 L 64 104.45 L 72 104.53 L 80 104.57 L 88 104.58 L 96 104.55 L 104 104.50 L 112 104.42 L 120 104.31 L 128 104.18 L 136 104.03 L 144 103.87 L 152 103.69 L 160 103.51 L 168 103.33 L 176 103.16 L 184 102.99 L 192 102.84 L 200 102.70 L 208 102.59 L 216 102.49 L 224 102.43 L 232 102.39 L 240 102.38 L 248 102.40 L 256 102.44 L 264 102.51 L 272 102.61 L 280 102.72 L 288 102.86 L 296 103.00 L 304 103.16 L 312 103.32 L 320 103.48 L 328 103.63 L 336 103.78 L 344 103.91 L 352 104.03 L 360 104.12 L 368 104.18 L 376 104.22 L 384 104.23 L 392 104.21 L 400 104.16" stroke="#2E1808" stroke-width="0.40911091436321917" fill="none" opacity="0.2287875645712415" stroke-linecap="round"/>
<path d="M 0 111.71 L 8 111.93 L 16 112.16 L 24 112.37 L 32 112.57 L 40 112.75 L 48 112.91 L 56 113.05 L 64 113.15 L 72 113.22 L 80 113.26 L 88 113.27 L 96 113.25 L 104 113.20 L 112 113.11 L 120 113.01 L 128 112.88 L 136 112.73 L 144 112.56 L 152 112.39 L 160 112.21 L 168 112.03 L 176 111.85 L 184 111.69 L 192 111.53 L 200 111.40 L 208 111.28 L 216 111.19 L 224 111.12 L 232 111.08 L 240 111.07 L 248 111.09 L 256 111.14 L 264 111.21 L 272 111.30 L 280 111.42 L 288 111.55 L 296 111.70 L 304 111.85 L 312 112.01 L 320 112.17 L 328 112.33 L 336 112.48 L 344 112.61 L 352 112.72 L 360 112.81 L 368 112.88 L 376 112.92 L 384 112.93 L 392 112.91 L 400 112.86" stroke="#2E1808" stroke-width="0.5953452061315045" fill="none" opacity="0.2155191206802045" stroke-linecap="round"/>
<path d="M 0 119.16 L 8 119.38 L 16 119.61 L 24 119.82 L 32 120.02 L 40 120.20 L 48 120.36 L 56 120.50 L 64 120.60 L 72 120.67 L 80 120.71 L 88 120.72 L 96 120.70 L 104 120.65 L 112 120.56 L 120 120.46 L 128 120.33 L 136 120.18 L 144 120.01 L 152 119.84 L 160 119.66 L 168 119.48 L 176 119.30 L 184 119.14 L 192 118.98 L 200 118.85 L 208 118.73 L 216 118.64 L 224 118.57 L 232 118.53 L 240 118.52 L 248 118.54 L 256 118.59 L 264 118.66 L 272 118.75 L 280 118.87 L 288 119.00 L 296 119.15 L 304 119.30 L 312 119.46 L 320 119.62 L 328 119.78 L 336 119.93 L 344 120.06 L 352 120.17 L 360 120.26 L 368 120.33 L 376 120.37 L 384 120.38 L 392 120.36 L 400 120.31" stroke="#2E1808" stroke-width="0.6189454772341366" fill="none" opacity="0.20762537000747744" stroke-linecap="round"/>
<path d="M 0 128.08 L 8 128.31 L 16 128.54 L 24 128.75 L 32 128.95 L 40 129.13 L 48 129.29 L 56 129.42 L 64 129.53 L 72 129.60 L 80 129.64 L 88 129.65 L 96 129.63 L 104 129.57 L 112 129.49 L 120 129.38 L 128 129.25 L 136 129.10 L 144 128.94 L 152 128.77 L 160 128.59 L 168 128.41 L 176 128.23 L 184 128.06 L 192 127.91 L 200 127.77 L 208 127.66 L 216 127.57 L 224 127.50 L 232 127.46 L 240 127.45 L 248 127.47 L 256 127.51 L 264 127.58 L 272 127.68 L 280 127.79 L 288 127.93 L 296 128.07 L 304 128.23 L 312 128.39 L 320 128.55 L 328 128.71 L 336 128.85 L 344 128.98 L 352 129.10 L 360 129.19 L 368 129.26 L 376 129.30 L 384 129.31 L 392 129.28 L 400 129.23" stroke="#2E1808" stroke-width="0.4657549697505553" fill="none" opacity="0.19049739278905437" stroke-linecap="round"/>
<path d="M 0 136.62 L 8 136.85 L 16 137.08 L 24 137.29 L 32 137.49 L 40 137.67 L 48 137.83 L 56 137.96 L 64 138.07 L 72 138.14 L 80 138.18 L 88 138.19 L 96 138.17 L 104 138.12 L 112 138.03 L 120 137.93 L 128 137.80 L 136 137.65 L 144 137.48 L 152 137.31 L 160 137.13 L 168 136.95 L 176 136.77 L 184 136.61 L 192 136.45 L 200 136.32 L 208 136.20 L 216 136.11 L 224 136.04 L 232 136.00 L 240 135.99 L 248 136.01 L 256 136.06 L 264 136.13 L 272 136.22 L 280 136.34 L 288 136.47 L 296 136.62 L 304 136.77 L 312 136.93 L 320 137.09 L 328 137.25 L 336 137.39 L 344 137.53 L 352 137.64 L 360 137.73 L 368 137.80 L 376 137.84 L 384 137.85 L 392 137.83 L 400 137.78" stroke="#2E1808" stroke-width="0.5003028323618286" fill="none" opacity="0.1569611045142342" stroke-linecap="round"/>
<path d="M 0 146.69 L 8 146.92 L 16 147.14 L 24 147.36 L 32 147.56 L 40 147.74 L 48 147.90 L 56 148.03 L 64 148.13 L 72 148.21 L 80 148.25 L 88 148.26 L 96 148.23 L 104 148.18 L 112 148.10 L 120 147.99 L 128 147.86 L 136 147.71 L 144 147.55 L 152 147.37 L 160 147.19 L 168 147.01 L 176 146.84 L 184 146.67 L 192 146.52 L 200 146.38 L 208 146.26 L 216 146.17 L 224 146.11 L 232 146.07 L 240 146.06 L 248 146.07 L 256 146.12 L 264 146.19 L 272 146.29 L 280 146.40 L 288 146.53 L 296 146.68 L 304 146.84 L 312 147.00 L 320 147.16 L 328 147.31 L 336 147.46 L 344 147.59 L 352 147.70 L 360 147.80 L 368 147.86 L 376 147.90 L 384 147.91 L 392 147.89 L 400 147.84" stroke="#2E1808" stroke-width="0.6508519649126603" fill="none" opacity="0.1911439982174588" stroke-linecap="round"/>
<path d="M 0 143.07 L 8 143.30 L 16 143.52 L 24 143.73 L 32 143.93 L 40 144.12 L 48 144.27 L 56 144.41 L 64 144.51 L 72 144.58 L 80 144.62 L 88 144.63 L 96 144.61 L 104 144.56 L 112 144.48 L 120 144.37 L 128 144.24 L 136 144.09 L 144 143.92 L 152 143.75 L 160 143.57 L 168 143.39 L 176 143.21 L 184 143.05 L 192 142.89 L 200 142.76 L 208 142.64 L 216 142.55 L 224 142.48 L 232 142.45 L 240 142.43 L 248 142.45 L 256 142.50 L 264 142.57 L 272 142.66 L 280 142.78 L 288 142.91 L 296 143.06 L 304 143.21 L 312 143.38 L 320 143.54 L 328 143.69 L 336 143.84 L 344 143.97 L 352 144.08 L 360 144.17 L 368 144.24 L 376 144.28 L 384 144.29 L 392 144.27 L 400 144.22" stroke="#1F0F04" stroke-width="1.0" fill="none" opacity="0.35" stroke-linecap="round"/>
<path d="M 0 143.82 L 8 144.05 L 16 144.28 L 24 144.49 L 32 144.69 L 40 144.87 L 48 145.03 L 56 145.16 L 64 145.27 L 72 145.34 L 80 145.38 L 88 145.39 L 96 145.37 L 104 145.31 L 112 145.23 L 120 145.12 L 128 144.99 L 136 144.84 L 144 144.68 L 152 144.51 L 160 144.33 L 168 144.15 L 176 143.97 L 184 143.80 L 192 143.65 L 200 143.51 L 208 143.40 L 216 143.31 L 224 143.24 L 232 143.20 L 240 143.19 L 248 143.21 L 256 143.25 L 264 143.32 L 272 143.42 L 280 143.53 L 288 143.67 L 296 143.81 L 304 143.97 L 312 144.13 L 320 144.29 L 328 144.45 L 336 144.59 L 344 144.72 L 352 144.84 L 360 144.93 L 368 145.00 L 376 145.04 L 384 145.05 L 392 145.02 L 400 144.97" stroke="#1F0F04" stroke-width="1.0" fill="none" opacity="0.35" stroke-linecap="round"/>
<path d="M 0 165.48 L 8 165.71 L 16 165.93 L 24 166.15 L 32 166.35 L 40 166.53 L 48 166.69 L 56 166.82 L 64 166.92 L 72 167.00 L 80 167.04 L 88 167.05 L 96 167.02 L 104 166.97 L 112 166.89 L 120 166.78 L 128 166.65 L 136 166.50 L 144 166.34 L 152 166.16 L 160 165.99 L 168 165.81 L 176 165.63 L 184 165.46 L 192 165.31 L 200 165.17 L 208 165.06 L 216 164.96 L 224 164.90 L 232 164.86 L 240 164.85 L 248 164.87 L 256 164.91 L 264 164.98 L 272 165.08 L 280 165.19 L 288 165.33 L 296 165.47 L 304 165.63 L 312 165.79 L 320 165.95 L 328 166.11 L 336 166.25 L 344 166.38 L 352 166.50 L 360 166.59 L 368 166.65 L 376 166.69 L 384 166.70 L 392 166.68 L 400 166.63" stroke="#2E1808" stroke-width="0.4918939401874616" fill="none" opacity="0.20688323389718632" stroke-linecap="round"/>
<path d="M 0 172.03 L 8 172.26 L 16 172.48 L 24 172.70 L 32 172.90 L 40 173.08 L 48 173.24 L 56 173.37 L 64 173.47 L 72 173.55 L 80 173.59 L 88 173.60 L 96 173.57 L 104 173.52 L 112 173.44 L 120 173.33 L 128 173.20 L 136 173.05 L 144 172.89 L 152 172.71 L 160 172.53 L 168 172.35 L 176 172.18 L 184 172.01 L 192 171.86 L 200 171.72 L 208 171.60 L 216 171.51 L 224 171.45 L 232 171.41 L 240 171.40 L 248 171.41 L 256 171.46 L 264 171.53 L 272 171.63 L 280 171.74 L 288 171.88 L 296 172.02 L 304 172.18 L 312 172.34 L 320 172.50 L 328 172.65 L 336 172.80 L 344 172.93 L 352 173.04 L 360 173.14 L 368 173.20 L 376 173.24 L 384 173.25 L 392 173.23 L 400 173.18" stroke="#2E1808" stroke-width="0.5637456368766117" fill="none" opacity="0.18861269841310274" stroke-linecap="round"/>
<path d="M 0 182.52 L 8 182.75 L 16 182.98 L 24 183.19 L 32 183.39 L 40 183.57 L 48 183.73 L 56 183.86 L 64 183.97 L 72 184.04 L 80 184.08 L 88 184.09 L 96 184.07 L 104 184.01 L 112 183.93 L 120 183.83 L 128 183.70 L 136 183.55 L 144 183.38 L 152 183.21 L 160 183.03 L 168 182.85 L 176 182.67 L 184 182.51 L 192 182.35 L 200 182.22 L 208 182.10 L 216 182.01 L 224 181.94 L 232 181.90 L 240 181.89 L 248 181.91 L 256 181.95 L 264 182.03 L 272 182.12 L 280 182.24 L 288 182.37 L 296 182.52 L 304 182.67 L 312 182.83 L 320 182.99 L 328 183.15 L 336 183.29 L 344 183.43 L 352 183.54 L 360 183.63 L 368 183.70 L 376 183.74 L 384 183.75 L 392 183.73 L 400 183.68" stroke="#2E1808" stroke-width="0.4578373134778984" fill="none" opacity="0.1302876181832976" stroke-linecap="round"/>
<path d="M 0 192.26 L 8 192.49 L 16 192.72 L 24 192.93 L 32 193.13 L 40 193.31 L 48 193.47 L 56 193.60 L 64 193.71 L 72 193.78 L 80 193.82 L 88 193.83 L 96 193.81 L 104 193.75 L 112 193.67 L 120 193.57 L 128 193.43 L 136 193.29 L 144 193.12 L 152 192.95 L 160 192.77 L 168 192.59 L 176 192.41 L 184 192.24 L 192 192.09 L 200 191.95 L 208 191.84 L 216 191.75 L 224 191.68 L 232 191.64 L 240 191.63 L 248 191.65 L 256 191.69 L 264 191.77 L 272 191.86 L 280 191.98 L 288 192.11 L 296 192.26 L 304 192.41 L 312 192.57 L 320 192.73 L 328 192.89 L 336 193.03 L 344 193.17 L 352 193.28 L 360 193.37 L 368 193.44 L 376 193.48 L 384 193.49 L 392 193.47 L 400 193.42" stroke="#2E1808" stroke-width="0.608610241019033" fill="none" opacity="0.18615284913197494" stroke-linecap="round"/>
<path d="M 0 198.79 L 8 199.02 L 16 199.24 L 24 199.46 L 32 199.66 L 40 199.84 L 48 199.99 L 56 200.13 L 64 200.23 L 72 200.30 L 80 200.34 L 88 200.35 L 96 200.33 L 104 200.28 L 112 200.20 L 120 200.09 L 128 199.96 L 136 199.81 L 144 199.65 L 152 199.47 L 160 199.29 L 168 199.11 L 176 198.94 L 184 198.77 L 192 198.61 L 200 198.48 L 208 198.36 L 216 198.27 L 224 198.20 L 232 198.17 L 240 198.16 L 248 198.17 L 256 198.22 L 264 198.29 L 272 198.38 L 280 198.50 L 288 198.63 L 296 198.78 L 304 198.94 L 312 199.10 L 320 199.26 L 328 199.41 L 336 199.56 L 344 199.69 L 352 199.80 L 360 199.89 L 368 199.96 L 376 200.00 L 384 200.01 L 392 199.99 L 400 199.94" stroke="#2E1808" stroke-width="0.6730279772853351" fill="none" opacity="0.16390894980229198" stroke-linecap="round"/>
<path d="M 0 209.45 L 8 209.68 L 16 209.90 L 24 210.12 L 32 210.32 L 40 210.50 L 48 210.66 L 56 210.79 L 64 210.89 L 72 210.96 L 80 211.01 L 88 211.01 L 96 210.99 L 104 210.94 L 112 210.86 L 120 210.75 L 128 210.62 L 136 210.47 L 144 210.31 L 152 210.13 L 160 209.95 L 168 209.77 L 176 209.60 L 184 209.43 L 192 209.28 L 200 209.14 L 208 209.02 L 216 208.93 L 224 208.87 L 232 208.83 L 240 208.82 L 248 208.83 L 256 208.88 L 264 208.95 L 272 209.05 L 280 209.16 L 288 209.29 L 296 209.44 L 304 209.60 L 312 209.76 L 320 209.92 L 328 210.07 L 336 210.22 L 344 210.35 L 352 210.46 L 360 210.56 L 368 210.62 L 376 210.66 L 384 210.67 L 392 210.65 L 400 210.60" stroke="#2E1808" stroke-width="0.45906797374932834" fill="none" opacity="0.22908192118507853" stroke-linecap="round"/>
<path d="M 0 217.86 L 8 218.09 L 16 218.32 L 24 218.53 L 32 218.73 L 40 218.91 L 48 219.07 L 56 219.20 L 64 219.31 L 72 219.38 L 80 219.42 L 88 219.43 L 96 219.41 L 104 219.36 L 112 219.27 L 120 219.17 L 128 219.04 L 136 218.89 L 144 218.72 L 152 218.55 L 160 218.37 L 168 218.19 L 176 218.01 L 184 217.85 L 192 217.69 L 200 217.56 L 208 217.44 L 216 217.35 L 224 217.28 L 232 217.24 L 240 217.23 L 248 217.25 L 256 217.30 L 264 217.37 L 272 217.46 L 280 217.58 L 288 217.71 L 296 217.86 L 304 218.01 L 312 218.17 L 320 218.33 L 328 218.49 L 336 218.63 L 344 218.77 L 352 218.88 L 360 218.97 L 368 219.04 L 376 219.08 L 384 219.09 L 392 219.07 L 400 219.02" stroke="#2E1808" stroke-width="0.533402989960313" fill="none" opacity="0.20805994448611503" stroke-linecap="round"/>
<path d="M 0 227.87 L 8 228.10 L 16 228.32 L 24 228.54 L 32 228.74 L 40 228.92 L 48 229.07 L 56 229.21 L 64 229.31 L 72 229.38 L 80 229.42 L 88 229.43 L 96 229.41 L 104 229.36 L 112 229.28 L 120 229.17 L 128 229.04 L 136 228.89 L 144 228.73 L 152 228.55 L 160 228.37 L 168 228.19 L 176 228.02 L 184 227.85 L 192 227.69 L 200 227.56 L 208 227.44 L 216 227.35 L 224 227.28 L 232 227.25 L 240 227.24 L 248 227.25 L 256 227.30 L 264 227.37 L 272 227.46 L 280 227.58 L 288 227.71 L 296 227.86 L 304 228.02 L 312 228.18 L 320 228.34 L 328 228.49 L 336 228.64 L 344 228.77 L 352 228.88 L 360 228.97 L 368 229.04 L 376 229.08 L 384 229.09 L 392 229.07 L 400 229.02" stroke="#2E1808" stroke-width="0.435411190094856" fill="none" opacity="0.18178474365577002" stroke-linecap="round"/>
<path d="M 0 179.94 L 8 180.17 L 16 180.40 L 24 180.61 L 32 180.81 L 40 180.99 L 48 181.15 L 56 181.28 L 64 181.39 L 72 181.46 L 80 181.50 L 88 181.51 L 96 181.49 L 104 181.43 L 112 181.35 L 120 181.25 L 128 181.12 L 136 180.97 L 144 180.80 L 152 180.63 L 160 180.45 L 168 180.27 L 176 180.09 L 184 179.93 L 192 179.77 L 200 179.63 L 208 179.52 L 216 179.43 L 224 179.36 L 232 179.32 L 240 179.31 L 248 179.33 L 256 179.37 L 264 179.45 L 272 179.54 L 280 179.66 L 288 179.79 L 296 179.94 L 304 180.09 L 312 180.25 L 320 180.41 L 328 180.57 L 336 180.71 L 344 180.85 L 352 180.96 L 360 181.05 L 368 181.12 L 376 181.16 L 384 181.17 L 392 181.15 L 400 181.10" stroke="#1F0F04" stroke-width="1.0" fill="none" opacity="0.35" stroke-linecap="round"/>
<path d="M 0 224.15 L 8 224.38 L 16 224.60 L 24 224.82 L 32 225.02 L 40 225.20 L 48 225.36 L 56 225.49 L 64 225.59 L 72 225.67 L 80 225.71 L 88 225.72 L 96 225.69 L 104 225.64 L 112 225.56 L 120 225.45 L 128 225.32 L 136 225.17 L 144 225.01 L 152 224.83 L 160 224.65 L 168 224.47 L 176 224.30 L 184 224.13 L 192 223.98 L 200 223.84 L 208 223.73 L 216 223.63 L 224 223.57 L 232 223.53 L 240 223.52 L 248 223.54 L 256 223.58 L 264 223.65 L 272 223.75 L 280 223.86 L 288 224.00 L 296 224.14 L 304 224.30 L 312 224.46 L 320 224.62 L 328 224.77 L 336 224.92 L 344 225.05 L 352 225.17 L 360 225.26 L 368 225.32 L 376 225.36 L 384 225.37 L 392 225.35 L 400 225.30" stroke="#1F0F04" stroke-width="1.0" fill="none" opacity="0.35" stroke-linecap="round"/>
<path d="M 0 242.86 L 8 243.09 L 16 243.31 L 24 243.53 L 32 243.73 L 40 243.91 L 48 244.07 L 56 244.20 L 64 244.30 L 72 244.37 L 80 244.42 L 88 244.42 L 96 244.40 L 104 244.35 L 112 244.27 L 120 244.16 L 128 244.03 L 136 243.88 L 144 243.72 L 152 243.54 L 160 243.36 L 168 243.18 L 176 243.01 L 184 242.84 L 192 242.69 L 200 242.55 L 208 242.43 L 216 242.34 L 224 242.28 L 232 242.24 L 240 242.23 L 248 242.24 L 256 242.29 L 264 242.36 L 272 242.46 L 280 242.57 L 288 242.70 L 296 242.85 L 304 243.01 L 312 243.17 L 320 243.33 L 328 243.48 L 336 243.63 L 344 243.76 L 352 243.87 L 360 243.97 L 368 244.03 L 376 244.07 L 384 244.08 L 392 244.06 L 400 244.01" stroke="#2E1808" stroke-width="0.5005639690809311" fill="none" opacity="0.14135179677696288" stroke-linecap="round"/>
<path d="M 0 253.64 L 8 253.87 L 16 254.09 L 24 254.31 L 32 254.51 L 40 254.69 L 48 254.85 L 56 254.98 L 64 255.08 L 72 255.16 L 80 255.20 L 88 255.21 L 96 255.18 L 104 255.13 L 112 255.05 L 120 254.94 L 128 254.81 L 136 254.66 L 144 254.50 L 152 254.32 L 160 254.15 L 168 253.97 L 176 253.79 L 184 253.62 L 192 253.47 L 200 253.33 L 208 253.22 L 216 253.12 L 224 253.06 L 232 253.02 L 240 253.01 L 248 253.03 L 256 253.07 L 264 253.14 L 272 253.24 L 280 253.35 L 288 253.49 L 296 253.63 L 304 253.79 L 312 253.95 L 320 254.11 L 328 254.27 L 336 254.41 L 344 254.54 L 352 254.66 L 360 254.75 L 368 254.81 L 376 254.85 L 384 254.86 L 392 254.84 L 400 254.79" stroke="#2E1808" stroke-width="0.5427059517606145" fill="none" opacity="0.21394978595305852" stroke-linecap="round"/>
<path d="M 0 261.99 L 8 262.22 L 16 262.45 L 24 262.66 L 32 262.86 L 40 263.04 L 48 263.20 L 56 263.33 L 64 263.44 L 72 263.51 L 80 263.55 L 88 263.56 L 96 263.54 L 104 263.49 L 112 263.40 L 120 263.30 L 128 263.17 L 136 263.02 L 144 262.85 L 152 262.68 L 160 262.50 L 168 262.32 L 176 262.14 L 184 261.98 L 192 261.82 L 200 261.69 L 208 261.57 L 216 261.48 L 224 261.41 L 232 261.37 L 240 261.36 L 248 261.38 L 256 261.43 L 264 261.50 L 272 261.59 L 280 261.71 L 288 261.84 L 296 261.99 L 304 262.14 L 312 262.30 L 320 262.46 L 328 262.62 L 336 262.77 L 344 262.90 L 352 263.01 L 360 263.10 L 368 263.17 L 376 263.21 L 384 263.22 L 392 263.20 L 400 263.15" stroke="#2E1808" stroke-width="0.483400465981011" fill="none" opacity="0.2067280959809103" stroke-linecap="round"/>
<path d="M 0 270.62 L 8 270.85 L 16 271.07 L 24 271.29 L 32 271.49 L 40 271.67 L 48 271.83 L 56 271.96 L 64 272.06 L 72 272.13 L 80 272.18 L 88 272.18 L 96 272.16 L 104 272.11 L 112 272.03 L 120 271.92 L 128 271.79 L 136 271.64 L 144 271.48 L 152 271.30 L 160 271.12 L 168 270.94 L 176 270.77 L 184 270.60 L 192 270.45 L 200 270.31 L 208 270.19 L 216 270.10 L 224 270.03 L 232 270.00 L 240 269.99 L 248 270.00 L 256 270.05 L 264 270.12 L 272 270.21 L 280 270.33 L 288 270.46 L 296 270.61 L 304 270.77 L 312 270.93 L 320 271.09 L 328 271.24 L 336 271.39 L 344 271.52 L 352 271.63 L 360 271.72 L 368 271.79 L 376 271.83 L 384 271.84 L 392 271.82 L 400 271.77" stroke="#2E1808" stroke-width="0.5908674275666885" fill="none" opacity="0.1873993460381632" stroke-linecap="round"/>
<path d="M 0 278.61 L 8 278.84 L 16 279.07 L 24 279.28 L 32 279.48 L 40 279.66 L 48 279.82 L 56 279.95 L 64 280.06 L 72 280.13 L 80 280.17 L 88 280.18 L 96 280.16 L 104 280.11 L 112 280.02 L 120 279.92 L 128 279.79 L 136 279.64 L 144 279.47 L 152 279.30 L 160 279.12 L 168 278.94 L 176 278.76 L 184 278.60 L 192 278.44 L 200 278.31 L 208 278.19 L 216 278.10 L 224 278.03 L 232 277.99 L 240 277.98 L 248 278.00 L 256 278.05 L 264 278.12 L 272 278.21 L 280 278.33 L 288 278.46 L 296 278.61 L 304 278.76 L 312 278.92 L 320 279.08 L 328 279.24 L 336 279.38 L 344 279.52 L 352 279.63 L 360 279.72 L 368 279.79 L 376 279.83 L 384 279.84 L 392 279.82 L 400 279.77" stroke="#2E1808" stroke-width="0.44137930079691085" fill="none" opacity="0.13232218901363374" stroke-linecap="round"/>
<path d="M 0 289.68 L 8 289.90 L 16 290.13 L 24 290.34 L 32 290.54 L 40 290.72 L 48 290.88 L 56 291.02 L 64 291.12 L 72 291.19 L 80 291.23 L 88 291.24 L 96 291.22 L 104 291.17 L 112 291.09 L 120 290.98 L 128 290.85 L 136 290.70 L 144 290.53 L 152 290.36 L 160 290.18 L 168 290.00 L 176 289.82 L 184 289.66 L 192 289.50 L 200 289.37 L 208 289.25 L 216 289.16 L 224 289.09 L 232 289.05 L 240 289.04 L 248 289.06 L 256 289.11 L 264 289.18 L 272 289.27 L 280 289.39 L 288 289.52 L 296 289.67 L 304 289.82 L 312 289.98 L 320 290.14 L 328 290.30 L 336 290.45 L 344 290.58 L 352 290.69 L 360 290.78 L 368 290.85 L 376 290.89 L 384 290.90 L 392 290.88 L 400 290.83" stroke="#2E1808" stroke-width="0.6919463340100367" fill="none" opacity="0.196221242135335" stroke-linecap="round"/>
<path d="M 0 298.80 L 8 299.03 L 16 299.26 L 24 299.47 L 32 299.67 L 40 299.85 L 48 300.01 L 56 300.14 L 64 300.25 L 72 300.32 L 80 300.36 L 88 300.37 L 96 300.35 L 104 300.29 L 112 300.21 L 120 300.10 L 128 299.97 L 136 299.83 L 144 299.66 L 152 299.49 L 160 299.31 L 168 299.13 L 176 298.95 L 184 298.78 L 192 298.63 L 200 298.49 L 208 298.38 L 216 298.29 L 224 298.22 L 232 298.18 L 240 298.17 L 248 298.19 L 256 298.23 L 264 298.31 L 272 298.40 L 280 298.52 L 288 298.65 L 296 298.80 L 304 298.95 L 312 299.11 L 320 299.27 L 328 299.43 L 336 299.57 L 344 299.70 L 352 299.82 L 360 299.91 L 368 299.98 L 376 300.02 L 384 300.03 L 392 300.01 L 400 299.95" stroke="#2E1808" stroke-width="0.6296497965938727" fill="none" opacity="0.14802294525409473" stroke-linecap="round"/>
<path d="M 0 308.46 L 8 308.68 L 16 308.91 L 24 309.12 L 32 309.32 L 40 309.50 L 48 309.66 L 56 309.80 L 64 309.90 L 72 309.97 L 80 310.01 L 88 310.02 L 96 310.00 L 104 309.95 L 112 309.86 L 120 309.76 L 128 309.63 L 136 309.48 L 144 309.31 L 152 309.14 L 160 308.96 L 168 308.78 L 176 308.60 L 184 308.44 L 192 308.28 L 200 308.15 L 208 308.03 L 216 307.94 L 224 307.87 L 232 307.83 L 240 307.82 L 248 307.84 L 256 307.89 L 264 307.96 L 272 308.05 L 280 308.17 L 288 308.30 L 296 308.45 L 304 308.60 L 312 308.76 L 320 308.92 L 328 309.08 L 336 309.23 L 344 309.36 L 352 309.47 L 360 309.56 L 368 309.63 L 376 309.67 L 384 309.68 L 392 309.66 L 400 309.61" stroke="#2E1808" stroke-width="0.4033559600191769" fill="none" opacity="0.15835640129535156" stroke-linecap="round"/>
<path d="M 0 273.76 L 8 273.99 L 16 274.21 L 24 274.43 L 32 274.63 L 40 274.81 L 48 274.97 L 56 275.10 L 64 275.20 L 72 275.28 L 80 275.32 L 88 275.33 L 96 275.30 L 104 275.25 L 112 275.17 L 120 275.06 L 128 274.93 L 136 274.78 L 144 274.62 L 152 274.44 L 160 274.26 L 168 274.08 L 176 273.91 L 184 273.74 L 192 273.59 L 200 273.45 L 208 273.34 L 216 273.24 L 224 273.18 L 232 273.14 L 240 273.13 L 248 273.15 L 256 273.19 L 264 273.26 L 272 273.36 L 280 273.47 L 288 273.61 L 296 273.75 L 304 273.91 L 312 274.07 L 320 274.23 L 328 274.38 L 336 274.53 L 344 274.66 L 352 274.78 L 360 274.87 L 368 274.93 L 376 274.97 L 384 274.98 L 392 274.96 L 400 274.91" stroke="#1F0F04" stroke-width="1.0" fill="none" opacity="0.35" stroke-linecap="round"/>
<path d="M 0 269.13 L 8 269.36 L 16 269.58 L 24 269.79 L 32 269.99 L 40 270.18 L 48 270.33 L 56 270.47 L 64 270.57 L 72 270.64 L 80 270.68 L 88 270.69 L 96 270.67 L 104 270.62 L 112 270.54 L 120 270.43 L 128 270.30 L 136 270.15 L 144 269.98 L 152 269.81 L 160 269.63 L 168 269.45 L 176 269.27 L 184 269.11 L 192 268.95 L 200 268.82 L 208 268.70 L 216 268.61 L 224 268.54 L 232 268.50 L 240 268.49 L 248 268.51 L 256 268.56 L 264 268.63 L 272 268.72 L 280 268.84 L 288 268.97 L 296 269.12 L 304 269.27 L 312 269.44 L 320 269.60 L 328 269.75 L 336 269.90 L 344 270.03 L 352 270.14 L 360 270.23 L 368 270.30 L 376 270.34 L 384 270.35 L 392 270.33 L 400 270.28" stroke="#1F0F04" stroke-width="1.0" fill="none" opacity="0.35" stroke-linecap="round"/>
<path d="M 0 323.03 L 8 323.26 L 16 323.48 L 24 323.70 L 32 323.90 L 40 324.08 L 48 324.24 L 56 324.37 L 64 324.47 L 72 324.54 L 80 324.59 L 88 324.60 L 96 324.57 L 104 324.52 L 112 324.44 L 120 324.33 L 128 324.20 L 136 324.05 L 144 323.89 L 152 323.71 L 160 323.53 L 168 323.35 L 176 323.18 L 184 323.01 L 192 322.86 L 200 322.72 L 208 322.60 L 216 322.51 L 224 322.45 L 232 322.41 L 240 322.40 L 248 322.41 L 256 322.46 L 264 322.53 L 272 322.63 L 280 322.74 L 288 322.87 L 296 323.02 L 304 323.18 L 312 323.34 L 320 323.50 L 328 323.65 L 336 323.80 L 344 323.93 L 352 324.04 L 360 324.14 L 368 324.20 L 376 324.24 L 384 324.25 L 392 324.23 L 400 324.18" stroke="#2E1808" stroke-width="0.43745582528524085" fill="none" opacity="0.12496008176010759" stroke-linecap="round"/>
<path d="M 0 334.10 L 8 334.33 L 16 334.55 L 24 334.76 L 32 334.96 L 40 335.15 L 48 335.30 L 56 335.44 L 64 335.54 L 72 335.61 L 80 335.65 L 88 335.66 L 96 335.64 L 104 335.59 L 112 335.51 L 120 335.40 L 128 335.27 L 136 335.12 L 144 334.95 L 152 334.78 L 160 334.60 L 168 334.42 L 176 334.24 L 184 334.08 L 192 333.92 L 200 333.79 L 208 333.67 L 216 333.58 L 224 333.51 L 232 333.47 L 240 333.46 L 248 333.48 L 256 333.53 L 264 333.60 L 272 333.69 L 280 333.81 L 288 333.94 L 296 334.09 L 304 334.24 L 312 334.40 L 320 334.57 L 328 334.72 L 336 334.87 L 344 335.00 L 352 335.11 L 360 335.20 L 368 335.27 L 376 335.31 L 384 335.32 L 392 335.30 L 400 335.25" stroke="#2E1808" stroke-width="0.5841852632616217" fill="none" opacity="0.12549869322456653" stroke-linecap="round"/>
<path d="M 0 341.12 L 8 341.35 L 16 341.57 L 24 341.79 L 32 341.99 L 40 342.17 L 48 342.33 L 56 342.46 L 64 342.56 L 72 342.64 L 80 342.68 L 88 342.69 L 96 342.66 L 104 342.61 L 112 342.53 L 120 342.42 L 128 342.29 L 136 342.14 L 144 341.98 L 152 341.80 L 160 341.62 L 168 341.44 L 176 341.27 L 184 341.10 L 192 340.95 L 200 340.81 L 208 340.70 L 216 340.60 L 224 340.54 L 232 340.50 L 240 340.49 L 248 340.51 L 256 340.55 L 264 340.62 L 272 340.72 L 280 340.83 L 288 340.97 L 296 341.11 L 304 341.27 L 312 341.43 L 320 341.59 L 328 341.74 L 336 341.89 L 344 342.02 L 352 342.14 L 360 342.23 L 368 342.29 L 376 342.33 L 384 342.34 L 392 342.32 L 400 342.27" stroke="#2E1808" stroke-width="0.6462180164452765" fill="none" opacity="0.1412646900425335" stroke-linecap="round"/>
<path d="M 0 350.40 L 8 350.63 L 16 350.85 L 24 351.06 L 32 351.26 L 40 351.45 L 48 351.60 L 56 351.74 L 64 351.84 L 72 351.91 L 80 351.95 L 88 351.96 L 96 351.94 L 104 351.89 L 112 351.81 L 120 351.70 L 128 351.57 L 136 351.42 L 144 351.25 L 152 351.08 L 160 350.90 L 168 350.72 L 176 350.54 L 184 350.38 L 192 350.22 L 200 350.09 L 208 349.97 L 216 349.88 L 224 349.81 L 232 349.78 L 240 349.76 L 248 349.78 L 256 349.83 L 264 349.90 L 272 349.99 L 280 350.11 L 288 350.24 L 296 350.39 L 304 350.54 L 312 350.71 L 320 350.87 L 328 351.02 L 336 351.17 L 344 351.30 L 352 351.41 L 360 351.50 L 368 351.57 L 376 351.61 L 384 351.62 L 392 351.60 L 400 351.55" stroke="#2E1808" stroke-width="0.5364554112222586" fill="none" opacity="0.1402207391038106" stroke-linecap="round"/>
<path d="M 0 360.58 L 8 360.81 L 16 361.04 L 24 361.25 L 32 361.45 L 40 361.63 L 48 361.79 L 56 361.92 L 64 362.03 L 72 362.10 L 80 362.14 L 88 362.15 L 96 362.13 L 104 362.08 L 112 361.99 L 120 361.89 L 128 361.76 L 136 361.61 L 144 361.44 L 152 361.27 L 160 361.09 L 168 360.91 L 176 360.73 L 184 360.57 L 192 360.41 L 200 360.28 L 208 360.16 L 216 360.07 L 224 360.00 L 232 359.96 L 240 359.95 L 248 359.97 L 256 360.02 L 264 360.09 L 272 360.18 L 280 360.30 L 288 360.43 L 296 360.58 L 304 360.73 L 312 360.89 L 320 361.05 L 328 361.21 L 336 361.36 L 344 361.49 L 352 361.60 L 360 361.69 L 368 361.76 L 376 361.80 L 384 361.81 L 392 361.79 L 400 361.74" stroke="#2E1808" stroke-width="0.6579166155385421" fill="none" opacity="0.1776821282361331" stroke-linecap="round"/>
<path d="M 0 368.70 L 8 368.93 L 16 369.16 L 24 369.37 L 32 369.57 L 40 369.75 L 48 369.91 L 56 370.04 L 64 370.15 L 72 370.22 L 80 370.26 L 88 370.27 L 96 370.25 L 104 370.20 L 112 370.11 L 120 370.01 L 128 369.88 L 136 369.73 L 144 369.56 L 152 369.39 L 160 369.21 L 168 369.03 L 176 368.85 L 184 368.69 L 192 368.53 L 200 368.40 L 208 368.28 L 216 368.19 L 224 368.12 L 232 368.08 L 240 368.07 L 248 368.09 L 256 368.14 L 264 368.21 L 272 368.30 L 280 368.42 L 288 368.55 L 296 368.70 L 304 368.85 L 312 369.01 L 320 369.17 L 328 369.33 L 336 369.47 L 344 369.61 L 352 369.72 L 360 369.81 L 368 369.88 L 376 369.92 L 384 369.93 L 392 369.91 L 400 369.86" stroke="#2E1808" stroke-width="0.6151292732682855" fill="none" opacity="0.1776443959132543" stroke-linecap="round"/>
<path d="M 0 377.88 L 8 378.11 L 16 378.34 L 24 378.55 L 32 378.75 L 40 378.93 L 48 379.09 L 56 379.22 L 64 379.33 L 72 379.40 L 80 379.44 L 88 379.45 L 96 379.43 L 104 379.38 L 112 379.29 L 120 379.19 L 128 379.06 L 136 378.91 L 144 378.74 L 152 378.57 L 160 378.39 L 168 378.21 L 176 378.03 L 184 377.87 L 192 377.71 L 200 377.58 L 208 377.46 L 216 377.37 L 224 377.30 L 232 377.26 L 240 377.25 L 248 377.27 L 256 377.32 L 264 377.39 L 272 377.48 L 280 377.60 L 288 377.73 L 296 377.88 L 304 378.03 L 312 378.19 L 320 378.35 L 328 378.51 L 336 378.66 L 344 378.79 L 352 378.90 L 360 378.99 L 368 379.06 L 376 379.10 L 384 379.11 L 392 379.09 L 400 379.04" stroke="#2E1808" stroke-width="0.5400690950288386" fill="none" opacity="0.1988709235200251" stroke-linecap="round"/>
<path d="M 0 385.90 L 8 386.13 L 16 386.35 L 24 386.57 L 32 386.77 L 40 386.95 L 48 387.11 L 56 387.24 L 64 387.34 L 72 387.42 L 80 387.46 L 88 387.47 L 96 387.45 L 104 387.39 L 112 387.31 L 120 387.20 L 128 387.07 L 136 386.92 L 144 386.76 L 152 386.59 L 160 386.41 L 168 386.23 L 176 386.05 L 184 385.88 L 192 385.73 L 200 385.59 L 208 385.48 L 216 385.38 L 224 385.32 L 232 385.28 L 240 385.27 L 248 385.29 L 256 385.33 L 264 385.40 L 272 385.50 L 280 385.61 L 288 385.75 L 296 385.89 L 304 386.05 L 312 386.21 L 320 386.37 L 328 386.53 L 336 386.67 L 344 386.80 L 352 386.92 L 360 387.01 L 368 387.08 L 376 387.11 L 384 387.12 L 392 387.10 L 400 387.05" stroke="#2E1808" stroke-width="0.6349353187088436" fill="none" opacity="0.13358271351076317" stroke-linecap="round"/>
<path d="M 0 372.24 L 8 372.47 L 16 372.70 L 24 372.91 L 32 373.11 L 40 373.29 L 48 373.45 L 56 373.58 L 64 373.69 L 72 373.76 L 80 373.80 L 88 373.81 L 96 373.79 L 104 373.73 L 112 373.65 L 120 373.54 L 128 373.41 L 136 373.26 L 144 373.10 L 152 372.93 L 160 372.75 L 168 372.57 L 176 372.39 L 184 372.22 L 192 372.07 L 200 371.93 L 208 371.82 L 216 371.73 L 224 371.66 L 232 371.62 L 240 371.61 L 248 371.63 L 256 371.67 L 264 371.74 L 272 371.84 L 280 371.96 L 288 372.09 L 296 372.24 L 304 372.39 L 312 372.55 L 320 372.71 L 328 372.87 L 336 373.01 L 344 373.14 L 352 373.26 L 360 373.35 L 368 373.42 L 376 373.46 L 384 373.47 L 392 373.45 L 400 373.39" stroke="#1F0F04" stroke-width="1.0" fill="none" opacity="0.35" stroke-linecap="round"/>
<path d="M 0 382.14 L 8 382.37 L 16 382.59 L 24 382.81 L 32 383.01 L 40 383.19 L 48 383.35 L 56 383.48 L 64 383.58 L 72 383.65 L 80 383.70 L 88 383.70 L 96 383.68 L 104 383.63 L 112 383.55 L 120 383.44 L 128 383.31 L 136 383.16 L 144 383.00 L 152 382.82 L 160 382.64 L 168 382.46 L 176 382.29 L 184 382.12 L 192 381.97 L 200 381.83 L 208 381.71 L 216 381.62 L 224 381.56 L 232 381.52 L 240 381.51 L 248 381.52 L 256 381.57 L 264 381.64 L 272 381.74 L 280 381.85 L 288 381.98 L 296 382.13 L 304 382.29 L 312 382.45 L 320 382.61 L 328 382.76 L 336 382.91 L 344 383.04 L 352 383.15 L 360 383.25 L 368 383.31 L 376 383.35 L 384 383.36 L 392 383.34 L 400 383.29" stroke="#1F0F04" stroke-width="1.0" fill="none" opacity="0.35" stroke-linecap="round"/>
<path d="M 0 80.00 L 4 83.53 L 8 85.71 L 12 85.71 L 16 83.53 L 20 80.00 L 24 76.47 L 28 74.29 L 32 74.29 L 36 76.47 L 40 80.00 L 44 83.53 L 48 85.71 L 52 85.71 L 56 83.53 L 60 80.00 L 64 76.47 L 68 74.29 L 72 74.29 L 76 76.47 L 80 80.00 L 84 83.53 L 88 85.71 L 92 85.71 L 96 83.53 L 100 80.00 L 104 76.47 L 108 74.29 L 112 74.29 L 116 76.47 L 120 80.00 L 124 83.53 L 128 85.71 L 132 85.71 L 136 83.53 L 140 80.00 L 144 76.47 L 148 74.29 L 152 74.29 L 156 76.47 L 160 80.00 L 164 83.53 L 168 85.71 L 172 85.71 L 176 83.53 L 180 80.00 L 184 76.47 L 188 74.29 L 192 74.29 L 196 76.47 L 200 80.00 L 204 83.53 L 208 85.71 L 212 85.71 L 216 83.53 L 220 80.00 L 224 76.47 L 228 74.29 L 232 74.29 L 236 76.47 L 240 80.00 L 244 83.53 L 248 85.71 L 252 85.71 L 256 83.53 L 260 80.00 L 264 76.47 L 268 74.29 L 272 74.29 L 276 76.47 L 280 80.00 L 284 83.53 L 288 85.71 L 292 85.71 L 296 83.53 L 300 80.00 L 304 76.47 L 308 74.29 L 312 74.29 L 316 76.47 L 320 80.00 L 324 83.53 L 328 85.71 L 332 85.71 L 336 83.53 L 340 80.00 L 344 76.47 L 348 74.29 L 352 74.29 L 356 76.47 L 360 80.00 L 364 83.53 L 368 85.71 L 372 85.71 L 376 83.53 L 380 80.00 L 384 76.47 L 388 74.29 L 392 74.29 L 396 76.47 L 400 80.00" stroke="#1A0A02" stroke-width="3.5" fill="none" opacity="0.9" stroke-linecap="round"/>
<path d="M 0 80.00 L 4 83.53 L 8 85.71 L 12 85.71 L 16 83.53 L 20 80.00 L 24 76.47 L 28 74.29 L 32 74.29 L 36 76.47 L 40 80.00 L 44 83.53 L 48 85.71 L 52 85.71 L 56 83.53 L 60 80.00 L 64 76.47 L 68 74.29 L 72 74.29 L 76 76.47 L 80 80.00 L 84 83.53 L 88 85.71 L 92 85.71 L 96 83.53 L 100 80.00 L 104 76.47 L 108 74.29 L 112 74.29 L 116 76.47 L 120 80.00 L 124 83.53 L 128 85.71 L 132 85.71 L 136 83.53 L 140 80.00 L 144 76.47 L 148 74.29 L 152 74.29 L 156 76.47 L 160 80.00 L 164 83.53 L 168 85.71 L 172 85.71 L 176 83.53 L 180 80.00 L 184 76.47 L 188 74.29 L 192 74.29 L 196 76.47 L 200 80.00 L 204 83.53 L 208 85.71 L 212 85.71 L 216 83.53 L 220 80.00 L 224 76.47 L 228 74.29 L 232 74.29 L 236 76.47 L 240 80.00 L 244 83.53 L 248 85.71 L 252 85.71 L 256 83.53 L 260 80.00 L 264 76.47 L 268 74.29 L 272 74.29 L 276 76.47 L 280 80.00 L 284 83.53 L 288 85.71 L 292 85.71 L 296 83.53 L 300 80.00 L 304 76.47 L 308 74.29 L 312 74.29 L 316 76.47 L 320 80.00 L 324 83.53 L 328 85.71 L 332 85.71 L 336 83.53 L 340 80.00 L 344 76.47 L 348 74.29 L 352 74.29 L 356 76.47 L 360 80.00 L 364 83.53 L 368 85.71 L 372 85.71 L 376 83.53 L 380 80.00 L 384 76.47 L 388 74.29 L 392 74.29 L 396 76.47 L 400 80.00" stroke="#3E2010" stroke-width="1.8" fill="none" opacity="0.85" stroke-linecap="round"/>
<path d="M 0 86.00 L 4 84.85 L 8 81.85 L 12 78.15 L 16 75.15 L 20 74.00 L 24 75.15 L 28 78.15 L 32 81.85 L 36 84.85 L 40 86.00 L 44 84.85 L 48 81.85 L 52 78.15 L 56 75.15 L 60 74.00 L 64 75.15 L 68 78.15 L 72 81.85 L 76 84.85 L 80 86.00 L 84 84.85 L 88 81.85 L 92 78.15 L 96 75.15 L 100 74.00 L 104 75.15 L 108 78.15 L 112 81.85 L 116 84.85 L 120 86.00 L 124 84.85 L 128 81.85 L 132 78.15 L 136 75.15 L 140 74.00 L 144 75.15 L 148 78.15 L 152 81.85 L 156 84.85 L 160 86.00 L 164 84.85 L 168 81.85 L 172 78.15 L 176 75.15 L 180 74.00 L 184 75.15 L 188 78.15 L 192 81.85 L 196 84.85 L 200 86.00 L 204 84.85 L 208 81.85 L 212 78.15 L 216 75.15 L 220 74.00 L 224 75.15 L 228 78.15 L 232 81.85 L 236 84.85 L 240 86.00 L 244 84.85 L 248 81.85 L 252 78.15 L 256 75.15 L 260 74.00 L 264 75.15 L 268 78.15 L 272 81.85 L 276 84.85 L 280 86.00 L 284 84.85 L 288 81.85 L 292 78.15 L 296 75.15 L 300 74.00 L 304 75.15 L 308 78.15 L 312 81.85 L 316 84.85 L 320 86.00 L 324 84.85 L 328 81.85 L 332 78.15 L 336 75.15 L 340 74.00 L 344 75.15 L 348 78.15 L 352 81.85 L 356 84.85 L 360 86.00 L 364 84.85 L 368 81.85 L 372 78.15 L 376 75.15 L 380 74.00 L 384 75.15 L 388 78.15 L 392 81.85 L 396 84.85 L 400 86.00" stroke="#1A0A02" stroke-width="3.5" fill="none" opacity="0.9" stroke-linecap="round"/>
<path d="M 0 86.00 L 4 84.85 L 8 81.85 L 12 78.15 L 16 75.15 L 20 74.00 L 24 75.15 L 28 78.15 L 32 81.85 L 36 84.85 L 40 86.00 L 44 84.85 L 48 81.85 L 52 78.15 L 56 75.15 L 60 74.00 L 64 75.15 L 68 78.15 L 72 81.85 L 76 84.85 L 80 86.00 L 84 84.85 L 88 81.85 L 92 78.15 L 96 75.15 L 100 74.00 L 104 75.15 L 108 78.15 L 112 81.85 L 116 84.85 L 120 86.00 L 124 84.85 L 128 81.85 L 132 78.15 L 136 75.15 L 140 74.00 L 144 75.15 L 148 78.15 L 152 81.85 L 156 84.85 L 160 86.00 L 164 84.85 L 168 81.85 L 172 78.15 L 176 75.15 L 180 74.00 L 184 75.15 L 188 78.15 L 192 81.85 L 196 84.85 L 200 86.00 L 204 84.85 L 208 81.85 L 212 78.15 L 216 75.15 L 220 74.00 L 224 75.15 L 228 78.15 L 232 81.85 L 236 84.85 L 240 86.00 L 244 84.85 L 248 81.85 L 252 78.15 L 256 75.15 L 260 74.00 L 264 75.15 L 268 78.15 L 272 81.85 L 276 84.85 L 280 86.00 L 284 84.85 L 288 81.85 L 292 78.15 L 296 75.15 L 300 74.00 L 304 75.15 L 308 78.15 L 312 81.85 L 316 84.85 L 320 86.00 L 324 84.85 L 328 81.85 L 332 78.15 L 336 75.15 L 340 74.00 L 344 75.15 L 348 78.15 L 352 81.85 L 356 84.85 L 360 86.00 L 364 84.85 L 368 81.85 L 372 78.15 L 376 75.15 L 380 74.00 L 384 75.15 L 388 78.15 L 392 81.85 L 396 84.85 L 400 86.00" stroke="#4A2814" stroke-width="1.8" fill="none" opacity="0.85" stroke-linecap="round"/>
<path d="M 12 78.15 L 16 75.15 L 20 74.00 L 24 75.15 L 28 78.15" stroke="#B8863C" stroke-width="0.8" fill="none" opacity="0.7" stroke-linecap="round"/>
<path d="M 52 78.15 L 56 75.15 L 60 74.00 L 64 75.15 L 68 78.15" stroke="#B8863C" stroke-width="0.8" fill="none" opacity="0.7" stroke-linecap="round"/>
<path d="M 92 78.15 L 96 75.15 L 100 74.00 L 104 75.15 L 108 78.15" stroke="#B8863C" stroke-width="0.8" fill="none" opacity="0.7" stroke-linecap="round"/>
<path d="M 132 78.15 L 136 75.15 L 140 74.00 L 144 75.15 L 148 78.15" stroke="#B8863C" stroke-width="0.8" fill="none" opacity="0.7" stroke-linecap="round"/>
<path d="M 172 78.15 L 176 75.15 L 180 74.00 L 184 75.15 L 188 78.15" stroke="#B8863C" stroke-width="0.8" fill="none" opacity="0.7" stroke-linecap="round"/>
<path d="M 212 78.15 L 216 75.15 L 220 74.00 L 224 75.15 L 228 78.15" stroke="#B8863C" stroke-width="0.8" fill="none" opacity="0.7" stroke-linecap="round"/>
<path d="M 252 78.15 L 256 75.15 L 260 74.00 L 264 75.15 L 268 78.15" stroke="#B8863C" stroke-width="0.8" fill="none" opacity="0.7" stroke-linecap="round"/>
<path d="M 292 78.15 L 296 75.15 L 300 74.00 L 304 75.15 L 308 78.15" stroke="#B8863C" stroke-width="0.8" fill="none" opacity="0.7" stroke-linecap="round"/>
<path d="M 332 78.15 L 336 75.15 L 340 74.00 L 344 75.15 L 348 78.15" stroke="#B8863C" stroke-width="0.8" fill="none" opacity="0.7" stroke-linecap="round"/>
<path d="M 372 78.15 L 376 75.15 L 380 74.00 L 384 75.15 L 388 78.15" stroke="#B8863C" stroke-width="0.8" fill="none" opacity="0.7" stroke-linecap="round"/>
<circle cx="0" cy="80" r="1.5" fill="#B8863C" opacity="0.65" stroke="#1A0A02" stroke-width="0.4"/>
<circle cx="20" cy="80" r="1.5" fill="#B8863C" opacity="0.65" stroke="#1A0A02" stroke-width="0.4"/>
<circle cx="40" cy="80" r="1.5" fill="#B8863C" opacity="0.65" stroke="#1A0A02" stroke-width="0.4"/>
<circle cx="60" cy="80" r="1.5" fill="#B8863C" opacity="0.65" stroke="#1A0A02" stroke-width="0.4"/>
<circle cx="80" cy="80" r="1.5" fill="#B8863C" opacity="0.65" stroke="#1A0A02" stroke-width="0.4"/>
<circle cx="100" cy="80" r="1.5" fill="#B8863C" opacity="0.65" stroke="#1A0A02" stroke-width="0.4"/>
<circle cx="120" cy="80" r="1.5" fill="#B8863C" opacity="0.65" stroke="#1A0A02" stroke-width="0.4"/>
<circle cx="140" cy="80" r="1.5" fill="#B8863C" opacity="0.65" stroke="#1A0A02" stroke-width="0.4"/>
<circle cx="160" cy="80" r="1.5" fill="#B8863C" opacity="0.65" stroke="#1A0A02" stroke-width="0.4"/>
<circle cx="180" cy="80" r="1.5" fill="#B8863C" opacity="0.65" stroke="#1A0A02" stroke-width="0.4"/>
<circle cx="200" cy="80" r="1.5" fill="#B8863C" opacity="0.65" stroke="#1A0A02" stroke-width="0.4"/>
<circle cx="220" cy="80" r="1.5" fill="#B8863C" opacity="0.65" stroke="#1A0A02" stroke-width="0.4"/>
<circle cx="240" cy="80" r="1.5" fill="#B8863C" opacity="0.65" stroke="#1A0A02" stroke-width="0.4"/>
<circle cx="260" cy="80" r="1.5" fill="#B8863C" opacity="0.65" stroke="#1A0A02" stroke-width="0.4"/>
<circle cx="280" cy="80" r="1.5" fill="#B8863C" opacity="0.65" stroke="#1A0A02" stroke-width="0.4"/>
<circle cx="300" cy="80" r="1.5" fill="#B8863C" opacity="0.65" stroke="#1A0A02" stroke-width="0.4"/>
<circle cx="320" cy="80" r="1.5" fill="#B8863C" opacity="0.65" stroke="#1A0A02" stroke-width="0.4"/>
<circle cx="340" cy="80" r="1.5" fill="#B8863C" opacity="0.65" stroke="#1A0A02" stroke-width="0.4"/>
<circle cx="360" cy="80" r="1.5" fill="#B8863C" opacity="0.65" stroke="#1A0A02" stroke-width="0.4"/>
<circle cx="380" cy="80" r="1.5" fill="#B8863C" opacity="0.65" stroke="#1A0A02" stroke-width="0.4"/>
<circle cx="400" cy="80" r="1.5" fill="#B8863C" opacity="0.65" stroke="#1A0A02" stroke-width="0.4"/>
<path d="M 0 160.00 L 4 163.53 L 8 165.71 L 12 165.71 L 16 163.53 L 20 160.00 L 24 156.47 L 28 154.29 L 32 154.29 L 36 156.47 L 40 160.00 L 44 163.53 L 48 165.71 L 52 165.71 L 56 163.53 L 60 160.00 L 64 156.47 L 68 154.29 L 72 154.29 L 76 156.47 L 80 160.00 L 84 163.53 L 88 165.71 L 92 165.71 L 96 163.53 L 100 160.00 L 104 156.47 L 108 154.29 L 112 154.29 L 116 156.47 L 120 160.00 L 124 163.53 L 128 165.71 L 132 165.71 L 136 163.53 L 140 160.00 L 144 156.47 L 148 154.29 L 152 154.29 L 156 156.47 L 160 160.00 L 164 163.53 L 168 165.71 L 172 165.71 L 176 163.53 L 180 160.00 L 184 156.47 L 188 154.29 L 192 154.29 L 196 156.47 L 200 160.00 L 204 163.53 L 208 165.71 L 212 165.71 L 216 163.53 L 220 160.00 L 224 156.47 L 228 154.29 L 232 154.29 L 236 156.47 L 240 160.00 L 244 163.53 L 248 165.71 L 252 165.71 L 256 163.53 L 260 160.00 L 264 156.47 L 268 154.29 L 272 154.29 L 276 156.47 L 280 160.00 L 284 163.53 L 288 165.71 L 292 165.71 L 296 163.53 L 300 160.00 L 304 156.47 L 308 154.29 L 312 154.29 L 316 156.47 L 320 160.00 L 324 163.53 L 328 165.71 L 332 165.71 L 336 163.53 L 340 160.00 L 344 156.47 L 348 154.29 L 352 154.29 L 356 156.47 L 360 160.00 L 364 163.53 L 368 165.71 L 372 165.71 L 376 163.53 L 380 160.00 L 384 156.47 L 388 154.29 L 392 154.29 L 396 156.47 L 400 160.00" stroke="#1A0A02" stroke-width="3.5" fill="none" opacity="0.9" stroke-linecap="round"/>
<path d="M 0 160.00 L 4 163.53 L 8 165.71 L 12 165.71 L 16 163.53 L 20 160.00 L 24 156.47 L 28 154.29 L 32 154.29 L 36 156.47 L 40 160.00 L 44 163.53 L 48 165.71 L 52 165.71 L 56 163.53 L 60 160.00 L 64 156.47 L 68 154.29 L 72 154.29 L 76 156.47 L 80 160.00 L 84 163.53 L 88 165.71 L 92 165.71 L 96 163.53 L 100 160.00 L 104 156.47 L 108 154.29 L 112 154.29 L 116 156.47 L 120 160.00 L 124 163.53 L 128 165.71 L 132 165.71 L 136 163.53 L 140 160.00 L 144 156.47 L 148 154.29 L 152 154.29 L 156 156.47 L 160 160.00 L 164 163.53 L 168 165.71 L 172 165.71 L 176 163.53 L 180 160.00 L 184 156.47 L 188 154.29 L 192 154.29 L 196 156.47 L 200 160.00 L 204 163.53 L 208 165.71 L 212 165.71 L 216 163.53 L 220 160.00 L 224 156.47 L 228 154.29 L 232 154.29 L 236 156.47 L 240 160.00 L 244 163.53 L 248 165.71 L 252 165.71 L 256 163.53 L 260 160.00 L 264 156.47 L 268 154.29 L 272 154.29 L 276 156.47 L 280 160.00 L 284 163.53 L 288 165.71 L 292 165.71 L 296 163.53 L 300 160.00 L 304 156.47 L 308 154.29 L 312 154.29 L 316 156.47 L 320 160.00 L 324 163.53 L 328 165.71 L 332 165.71 L 336 163.53 L 340 160.00 L 344 156.47 L 348 154.29 L 352 154.29 L 356 156.47 L 360 160.00 L 364 163.53 L 368 165.71 L 372 165.71 L 376 163.53 L 380 160.00 L 384 156.47 L 388 154.29 L 392 154.29 L 396 156.47 L 400 160.00" stroke="#3E2010" stroke-width="1.8" fill="none" opacity="0.85" stroke-linecap="round"/>
<path d="M 0 166.00 L 4 164.85 L 8 161.85 L 12 158.15 L 16 155.15 L 20 154.00 L 24 155.15 L 28 158.15 L 32 161.85 L 36 164.85 L 40 166.00 L 44 164.85 L 48 161.85 L 52 158.15 L 56 155.15 L 60 154.00 L 64 155.15 L 68 158.15 L 72 161.85 L 76 164.85 L 80 166.00 L 84 164.85 L 88 161.85 L 92 158.15 L 96 155.15 L 100 154.00 L 104 155.15 L 108 158.15 L 112 161.85 L 116 164.85 L 120 166.00 L 124 164.85 L 128 161.85 L 132 158.15 L 136 155.15 L 140 154.00 L 144 155.15 L 148 158.15 L 152 161.85 L 156 164.85 L 160 166.00 L 164 164.85 L 168 161.85 L 172 158.15 L 176 155.15 L 180 154.00 L 184 155.15 L 188 158.15 L 192 161.85 L 196 164.85 L 200 166.00 L 204 164.85 L 208 161.85 L 212 158.15 L 216 155.15 L 220 154.00 L 224 155.15 L 228 158.15 L 232 161.85 L 236 164.85 L 240 166.00 L 244 164.85 L 248 161.85 L 252 158.15 L 256 155.15 L 260 154.00 L 264 155.15 L 268 158.15 L 272 161.85 L 276 164.85 L 280 166.00 L 284 164.85 L 288 161.85 L 292 158.15 L 296 155.15 L 300 154.00 L 304 155.15 L 308 158.15 L 312 161.85 L 316 164.85 L 320 166.00 L 324 164.85 L 328 161.85 L 332 158.15 L 336 155.15 L 340 154.00 L 344 155.15 L 348 158.15 L 352 161.85 L 356 164.85 L 360 166.00 L 364 164.85 L 368 161.85 L 372 158.15 L 376 155.15 L 380 154.00 L 384 155.15 L 388 158.15 L 392 161.85 L 396 164.85 L 400 166.00" stroke="#1A0A02" stroke-width="3.5" fill="none" opacity="0.9" stroke-linecap="round"/>
<path d="M 0 166.00 L 4 164.85 L 8 161.85 L 12 158.15 L 16 155.15 L 20 154.00 L 24 155.15 L 28 158.15 L 32 161.85 L 36 164.85 L 40 166.00 L 44 164.85 L 48 161.85 L 52 158.15 L 56 155.15 L 60 154.00 L 64 155.15 L 68 158.15 L 72 161.85 L 76 164.85 L 80 166.00 L 84 164.85 L 88 161.85 L 92 158.15 L 96 155.15 L 100 154.00 L 104 155.15 L 108 158.15 L 112 161.85 L 116 164.85 L 120 166.00 L 124 164.85 L 128 161.85 L 132 158.15 L 136 155.15 L 140 154.00 L 144 155.15 L 148 158.15 L 152 161.85 L 156 164.85 L 160 166.00 L 164 164.85 L 168 161.85 L 172 158.15 L 176 155.15 L 180 154.00 L 184 155.15 L 188 158.15 L 192 161.85 L 196 164.85 L 200 166.00 L 204 164.85 L 208 161.85 L 212 158.15 L 216 155.15 L 220 154.00 L 224 155.15 L 228 158.15 L 232 161.85 L 236 164.85 L 240 166.00 L 244 164.85 L 248 161.85 L 252 158.15 L 256 155.15 L 260 154.00 L 264 155.15 L 268 158.15 L 272 161.85 L 276 164.85 L 280 166.00 L 284 164.85 L 288 161.85 L 292 158.15 L 296 155.15 L 300 154.00 L 304 155.15 L 308 158.15 L 312 161.85 L 316 164.85 L 320 166.00 L 324 164.85 L 328 161.85 L 332 158.15 L 336 155.15 L 340 154.00 L 344 155.15 L 348 158.15 L 352 161.85 L 356 164.85 L 360 166.00 L 364 164.85 L 368 161.85 L 372 158.15 L 376 155.15 L 380 154.00 L 384 155.15 L 388 158.15 L 392 161.85 L 396 164.85 L 400 166.00" stroke="#4A2814" stroke-width="1.8" fill="none" opacity="0.85" stroke-linecap="round"/>
<path d="M 12 158.15 L 16 155.15 L 20 154.00 L 24 155.15 L 28 158.15" stroke="#B8863C" stroke-width="0.8" fill="none" opacity="0.7" stroke-linecap="round"/>
<path d="M 52 158.15 L 56 155.15 L 60 154.00 L 64 155.15 L 68 158.15" stroke="#B8863C" stroke-width="0.8" fill="none" opacity="0.7" stroke-linecap="round"/>
<path d="M 92 158.15 L 96 155.15 L 100 154.00 L 104 155.15 L 108 158.15" stroke="#B8863C" stroke-width="0.8" fill="none" opacity="0.7" stroke-linecap="round"/>
<path d="M 132 158.15 L 136 155.15 L 140 154.00 L 144 155.15 L 148 158.15" stroke="#B8863C" stroke-width="0.8" fill="none" opacity="0.7" stroke-linecap="round"/>
<path d="M 172 158.15 L 176 155.15 L 180 154.00 L 184 155.15 L 188 158.15" stroke="#B8863C" stroke-width="0.8" fill="none" opacity="0.7" stroke-linecap="round"/>
<path d="M 212 158.15 L 216 155.15 L 220 154.00 L 224 155.15 L 228 158.15" stroke="#B8863C" stroke-width="0.8" fill="none" opacity="0.7" stroke-linecap="round"/>
<path d="M 252 158.15 L 256 155.15 L 260 154.00 L 264 155.15 L 268 158.15" stroke="#B8863C" stroke-width="0.8" fill="none" opacity="0.7" stroke-linecap="round"/>
<path d="M 292 158.15 L 296 155.15 L 300 154.00 L 304 155.15 L 308 158.15" stroke="#B8863C" stroke-width="0.8" fill="none" opacity="0.7" stroke-linecap="round"/>
<path d="M 332 158.15 L 336 155.15 L 340 154.00 L 344 155.15 L 348 158.15" stroke="#B8863C" stroke-width="0.8" fill="none" opacity="0.7" stroke-linecap="round"/>
<path d="M 372 158.15 L 376 155.15 L 380 154.00 L 384 155.15 L 388 158.15" stroke="#B8863C" stroke-width="0.8" fill="none" opacity="0.7" stroke-linecap="round"/>
<circle cx="0" cy="160" r="1.5" fill="#B8863C" opacity="0.65" stroke="#1A0A02" stroke-width="0.4"/>
<circle cx="20" cy="160" r="1.5" fill="#B8863C" opacity="0.65" stroke="#1A0A02" stroke-width="0.4"/>
<circle cx="40" cy="160" r="1.5" fill="#B8863C" opacity="0.65" stroke="#1A0A02" stroke-width="0.4"/>
<circle cx="60" cy="160" r="1.5" fill="#B8863C" opacity="0.65" stroke="#1A0A02" stroke-width="0.4"/>
<circle cx="80" cy="160" r="1.5" fill="#B8863C" opacity="0.65" stroke="#1A0A02" stroke-width="0.4"/>
<circle cx="100" cy="160" r="1.5" fill="#B8863C" opacity="0.65" stroke="#1A0A02" stroke-width="0.4"/>
<circle cx="120" cy="160" r="1.5" fill="#B8863C" opacity="0.65" stroke="#1A0A02" stroke-width="0.4"/>
<circle cx="140" cy="160" r="1.5" fill="#B8863C" opacity="0.65" stroke="#1A0A02" stroke-width="0.4"/>
<circle cx="160" cy="160" r="1.5" fill="#B8863C" opacity="0.65" stroke="#1A0A02" stroke-width="0.4"/>
<circle cx="180" cy="160" r="1.5" fill="#B8863C" opacity="0.65" stroke="#1A0A02" stroke-width="0.4"/>
<circle cx="200" cy="160" r="1.5" fill="#B8863C" opacity="0.65" stroke="#1A0A02" stroke-width="0.4"/>
<circle cx="220" cy="160" r="1.5" fill="#B8863C" opacity="0.65" stroke="#1A0A02" stroke-width="0.4"/>
<circle cx="240" cy="160" r="1.5" fill="#B8863C" opacity="0.65" stroke="#1A0A02" stroke-width="0.4"/>
<circle cx="260" cy="160" r="1.5" fill="#B8863C" opacity="0.65" stroke="#1A0A02" stroke-width="0.4"/>
<circle cx="280" cy="160" r="1.5" fill="#B8863C" opacity="0.65" stroke="#1A0A02" stroke-width="0.4"/>
<circle cx="300" cy="160" r="1.5" fill="#B8863C" opacity="0.65" stroke="#1A0A02" stroke-width="0.4"/>
<circle cx="320" cy="160" r="1.5" fill="#B8863C" opacity="0.65" stroke="#1A0A02" stroke-width="0.4"/>
<circle cx="340" cy="160" r="1.5" fill="#B8863C" opacity="0.65" stroke="#1A0A02" stroke-width="0.4"/>
<circle cx="360" cy="160" r="1.5" fill="#B8863C" opacity="0.65" stroke="#1A0A02" stroke-width="0.4"/>
<circle cx="380" cy="160" r="1.5" fill="#B8863C" opacity="0.65" stroke="#1A0A02" stroke-width="0.4"/>
<circle cx="400" cy="160" r="1.5" fill="#B8863C" opacity="0.65" stroke="#1A0A02" stroke-width="0.4"/>
<path d="M 0 240.00 L 4 243.53 L 8 245.71 L 12 245.71 L 16 243.53 L 20 240.00 L 24 236.47 L 28 234.29 L 32 234.29 L 36 236.47 L 40 240.00 L 44 243.53 L 48 245.71 L 52 245.71 L 56 243.53 L 60 240.00 L 64 236.47 L 68 234.29 L 72 234.29 L 76 236.47 L 80 240.00 L 84 243.53 L 88 245.71 L 92 245.71 L 96 243.53 L 100 240.00 L 104 236.47 L 108 234.29 L 112 234.29 L 116 236.47 L 120 240.00 L 124 243.53 L 128 245.71 L 132 245.71 L 136 243.53 L 140 240.00 L 144 236.47 L 148 234.29 L 152 234.29 L 156 236.47 L 160 240.00 L 164 243.53 L 168 245.71 L 172 245.71 L 176 243.53 L 180 240.00 L 184 236.47 L 188 234.29 L 192 234.29 L 196 236.47 L 200 240.00 L 204 243.53 L 208 245.71 L 212 245.71 L 216 243.53 L 220 240.00 L 224 236.47 L 228 234.29 L 232 234.29 L 236 236.47 L 240 240.00 L 244 243.53 L 248 245.71 L 252 245.71 L 256 243.53 L 260 240.00 L 264 236.47 L 268 234.29 L 272 234.29 L 276 236.47 L 280 240.00 L 284 243.53 L 288 245.71 L 292 245.71 L 296 243.53 L 300 240.00 L 304 236.47 L 308 234.29 L 312 234.29 L 316 236.47 L 320 240.00 L 324 243.53 L 328 245.71 L 332 245.71 L 336 243.53 L 340 240.00 L 344 236.47 L 348 234.29 L 352 234.29 L 356 236.47 L 360 240.00 L 364 243.53 L 368 245.71 L 372 245.71 L 376 243.53 L 380 240.00 L 384 236.47 L 388 234.29 L 392 234.29 L 396 236.47 L 400 240.00" stroke="#1A0A02" stroke-width="3.5" fill="none" opacity="0.9" stroke-linecap="round"/>
<path d="M 0 240.00 L 4 243.53 L 8 245.71 L 12 245.71 L 16 243.53 L 20 240.00 L 24 236.47 L 28 234.29 L 32 234.29 L 36 236.47 L 40 240.00 L 44 243.53 L 48 245.71 L 52 245.71 L 56 243.53 L 60 240.00 L 64 236.47 L 68 234.29 L 72 234.29 L 76 236.47 L 80 240.00 L 84 243.53 L 88 245.71 L 92 245.71 L 96 243.53 L 100 240.00 L 104 236.47 L 108 234.29 L 112 234.29 L 116 236.47 L 120 240.00 L 124 243.53 L 128 245.71 L 132 245.71 L 136 243.53 L 140 240.00 L 144 236.47 L 148 234.29 L 152 234.29 L 156 236.47 L 160 240.00 L 164 243.53 L 168 245.71 L 172 245.71 L 176 243.53 L 180 240.00 L 184 236.47 L 188 234.29 L 192 234.29 L 196 236.47 L 200 240.00 L 204 243.53 L 208 245.71 L 212 245.71 L 216 243.53 L 220 240.00 L 224 236.47 L 228 234.29 L 232 234.29 L 236 236.47 L 240 240.00 L 244 243.53 L 248 245.71 L 252 245.71 L 256 243.53 L 260 240.00 L 264 236.47 L 268 234.29 L 272 234.29 L 276 236.47 L 280 240.00 L 284 243.53 L 288 245.71 L 292 245.71 L 296 243.53 L 300 240.00 L 304 236.47 L 308 234.29 L 312 234.29 L 316 236.47 L 320 240.00 L 324 243.53 L 328 245.71 L 332 245.71 L 336 243.53 L 340 240.00 L 344 236.47 L 348 234.29 L 352 234.29 L 356 236.47 L 360 240.00 L 364 243.53 L 368 245.71 L 372 245.71 L 376 243.53 L 380 240.00 L 384 236.47 L 388 234.29 L 392 234.29 L 396 236.47 L 400 240.00" stroke="#3E2010" stroke-width="1.8" fill="none" opacity="0.85" stroke-linecap="round"/>
<path d="M 0 246.00 L 4 244.85 L 8 241.85 L 12 238.15 L 16 235.15 L 20 234.00 L 24 235.15 L 28 238.15 L 32 241.85 L 36 244.85 L 40 246.00 L 44 244.85 L 48 241.85 L 52 238.15 L 56 235.15 L 60 234.00 L 64 235.15 L 68 238.15 L 72 241.85 L 76 244.85 L 80 246.00 L 84 244.85 L 88 241.85 L 92 238.15 L 96 235.15 L 100 234.00 L 104 235.15 L 108 238.15 L 112 241.85 L 116 244.85 L 120 246.00 L 124 244.85 L 128 241.85 L 132 238.15 L 136 235.15 L 140 234.00 L 144 235.15 L 148 238.15 L 152 241.85 L 156 244.85 L 160 246.00 L 164 244.85 L 168 241.85 L 172 238.15 L 176 235.15 L 180 234.00 L 184 235.15 L 188 238.15 L 192 241.85 L 196 244.85 L 200 246.00 L 204 244.85 L 208 241.85 L 212 238.15 L 216 235.15 L 220 234.00 L 224 235.15 L 228 238.15 L 232 241.85 L 236 244.85 L 240 246.00 L 244 244.85 L 248 241.85 L 252 238.15 L 256 235.15 L 260 234.00 L 264 235.15 L 268 238.15 L 272 241.85 L 276 244.85 L 280 246.00 L 284 244.85 L 288 241.85 L 292 238.15 L 296 235.15 L 300 234.00 L 304 235.15 L 308 238.15 L 312 241.85 L 316 244.85 L 320 246.00 L 324 244.85 L 328 241.85 L 332 238.15 L 336 235.15 L 340 234.00 L 344 235.15 L 348 238.15 L 352 241.85 L 356 244.85 L 360 246.00 L 364 244.85 L 368 241.85 L 372 238.15 L 376 235.15 L 380 234.00 L 384 235.15 L 388 238.15 L 392 241.85 L 396 244.85 L 400 246.00" stroke="#1A0A02" stroke-width="3.5" fill="none" opacity="0.9" stroke-linecap="round"/>
<path d="M 0 246.00 L 4 244.85 L 8 241.85 L 12 238.15 L 16 235.15 L 20 234.00 L 24 235.15 L 28 238.15 L 32 241.85 L 36 244.85 L 40 246.00 L 44 244.85 L 48 241.85 L 52 238.15 L 56 235.15 L 60 234.00 L 64 235.15 L 68 238.15 L 72 241.85 L 76 244.85 L 80 246.00 L 84 244.85 L 88 241.85 L 92 238.15 L 96 235.15 L 100 234.00 L 104 235.15 L 108 238.15 L 112 241.85 L 116 244.85 L 120 246.00 L 124 244.85 L 128 241.85 L 132 238.15 L 136 235.15 L 140 234.00 L 144 235.15 L 148 238.15 L 152 241.85 L 156 244.85 L 160 246.00 L 164 244.85 L 168 241.85 L 172 238.15 L 176 235.15 L 180 234.00 L 184 235.15 L 188 238.15 L 192 241.85 L 196 244.85 L 200 246.00 L 204 244.85 L 208 241.85 L 212 238.15 L 216 235.15 L 220 234.00 L 224 235.15 L 228 238.15 L 232 241.85 L 236 244.85 L 240 246.00 L 244 244.85 L 248 241.85 L 252 238.15 L 256 235.15 L 260 234.00 L 264 235.15 L 268 238.15 L 272 241.85 L 276 244.85 L 280 246.00 L 284 244.85 L 288 241.85 L 292 238.15 L 296 235.15 L 300 234.00 L 304 235.15 L 308 238.15 L 312 241.85 L 316 244.85 L 320 246.00 L 324 244.85 L 328 241.85 L 332 238.15 L 336 235.15 L 340 234.00 L 344 235.15 L 348 238.15 L 352 241.85 L 356 244.85 L 360 246.00 L 364 244.85 L 368 241.85 L 372 238.15 L 376 235.15 L 380 234.00 L 384 235.15 L 388 238.15 L 392 241.85 L 396 244.85 L 400 246.00" stroke="#4A2814" stroke-width="1.8" fill="none" opacity="0.85" stroke-linecap="round"/>
<path d="M 12 238.15 L 16 235.15 L 20 234.00 L 24 235.15 L 28 238.15" stroke="#B8863C" stroke-width="0.8" fill="none" opacity="0.7" stroke-linecap="round"/>
<path d="M 52 238.15 L 56 235.15 L 60 234.00 L 64 235.15 L 68 238.15" stroke="#B8863C" stroke-width="0.8" fill="none" opacity="0.7" stroke-linecap="round"/>
<path d="M 92 238.15 L 96 235.15 L 100 234.00 L 104 235.15 L 108 238.15" stroke="#B8863C" stroke-width="0.8" fill="none" opacity="0.7" stroke-linecap="round"/>
<path d="M 132 238.15 L 136 235.15 L 140 234.00 L 144 235.15 L 148 238.15" stroke="#B8863C" stroke-width="0.8" fill="none" opacity="0.7" stroke-linecap="round"/>
<path d="M 172 238.15 L 176 235.15 L 180 234.00 L 184 235.15 L 188 238.15" stroke="#B8863C" stroke-width="0.8" fill="none" opacity="0.7" stroke-linecap="round"/>
<path d="M 212 238.15 L 216 235.15 L 220 234.00 L 224 235.15 L 228 238.15" stroke="#B8863C" stroke-width="0.8" fill="none" opacity="0.7" stroke-linecap="round"/>
<path d="M 252 238.15 L 256 235.15 L 260 234.00 L 264 235.15 L 268 238.15" stroke="#B8863C" stroke-width="0.8" fill="none" opacity="0.7" stroke-linecap="round"/>
<path d="M 292 238.15 L 296 235.15 L 300 234.00 L 304 235.15 L 308 238.15" stroke="#B8863C" stroke-width="0.8" fill="none" opacity="0.7" stroke-linecap="round"/>
<path d="M 332 238.15 L 336 235.15 L 340 234.00 L 344 235.15 L 348 238.15" stroke="#B8863C" stroke-width="0.8" fill="none" opacity="0.7" stroke-linecap="round"/>
<path d="M 372 238.15 L 376 235.15 L 380 234.00 L 384 235.15 L 388 238.15" stroke="#B8863C" stroke-width="0.8" fill="none" opacity="0.7" stroke-linecap="round"/>
<circle cx="0" cy="240" r="1.5" fill="#B8863C" opacity="0.65" stroke="#1A0A02" stroke-width="0.4"/>
<circle cx="20" cy="240" r="1.5" fill="#B8863C" opacity="0.65" stroke="#1A0A02" stroke-width="0.4"/>
<circle cx="40" cy="240" r="1.5" fill="#B8863C" opacity="0.65" stroke="#1A0A02" stroke-width="0.4"/>
<circle cx="60" cy="240" r="1.5" fill="#B8863C" opacity="0.65" stroke="#1A0A02" stroke-width="0.4"/>
<circle cx="80" cy="240" r="1.5" fill="#B8863C" opacity="0.65" stroke="#1A0A02" stroke-width="0.4"/>
<circle cx="100" cy="240" r="1.5" fill="#B8863C" opacity="0.65" stroke="#1A0A02" stroke-width="0.4"/>
<circle cx="120" cy="240" r="1.5" fill="#B8863C" opacity="0.65" stroke="#1A0A02" stroke-width="0.4"/>
<circle cx="140" cy="240" r="1.5" fill="#B8863C" opacity="0.65" stroke="#1A0A02" stroke-width="0.4"/>
<circle cx="160" cy="240" r="1.5" fill="#B8863C" opacity="0.65" stroke="#1A0A02" stroke-width="0.4"/>
<circle cx="180" cy="240" r="1.5" fill="#B8863C" opacity="0.65" stroke="#1A0A02" stroke-width="0.4"/>
<circle cx="200" cy="240" r="1.5" fill="#B8863C" opacity="0.65" stroke="#1A0A02" stroke-width="0.4"/>
<circle cx="220" cy="240" r="1.5" fill="#B8863C" opacity="0.65" stroke="#1A0A02" stroke-width="0.4"/>
<circle cx="240" cy="240" r="1.5" fill="#B8863C" opacity="0.65" stroke="#1A0A02" stroke-width="0.4"/>
<circle cx="260" cy="240" r="1.5" fill="#B8863C" opacity="0.65" stroke="#1A0A02" stroke-width="0.4"/>
<circle cx="280" cy="240" r="1.5" fill="#B8863C" opacity="0.65" stroke="#1A0A02" stroke-width="0.4"/>
<circle cx="300" cy="240" r="1.5" fill="#B8863C" opacity="0.65" stroke="#1A0A02" stroke-width="0.4"/>
<circle cx="320" cy="240" r="1.5" fill="#B8863C" opacity="0.65" stroke="#1A0A02" stroke-width="0.4"/>
<circle cx="340" cy="240" r="1.5" fill="#B8863C" opacity="0.65" stroke="#1A0A02" stroke-width="0.4"/>
<circle cx="360" cy="240" r="1.5" fill="#B8863C" opacity="0.65" stroke="#1A0A02" stroke-width="0.4"/>
<circle cx="380" cy="240" r="1.5" fill="#B8863C" opacity="0.65" stroke="#1A0A02" stroke-width="0.4"/>
<circle cx="400" cy="240" r="1.5" fill="#B8863C" opacity="0.65" stroke="#1A0A02" stroke-width="0.4"/>
<path d="M 0 320.00 L 4 323.53 L 8 325.71 L 12 325.71 L 16 323.53 L 20 320.00 L 24 316.47 L 28 314.29 L 32 314.29 L 36 316.47 L 40 320.00 L 44 323.53 L 48 325.71 L 52 325.71 L 56 323.53 L 60 320.00 L 64 316.47 L 68 314.29 L 72 314.29 L 76 316.47 L 80 320.00 L 84 323.53 L 88 325.71 L 92 325.71 L 96 323.53 L 100 320.00 L 104 316.47 L 108 314.29 L 112 314.29 L 116 316.47 L 120 320.00 L 124 323.53 L 128 325.71 L 132 325.71 L 136 323.53 L 140 320.00 L 144 316.47 L 148 314.29 L 152 314.29 L 156 316.47 L 160 320.00 L 164 323.53 L 168 325.71 L 172 325.71 L 176 323.53 L 180 320.00 L 184 316.47 L 188 314.29 L 192 314.29 L 196 316.47 L 200 320.00 L 204 323.53 L 208 325.71 L 212 325.71 L 216 323.53 L 220 320.00 L 224 316.47 L 228 314.29 L 232 314.29 L 236 316.47 L 240 320.00 L 244 323.53 L 248 325.71 L 252 325.71 L 256 323.53 L 260 320.00 L 264 316.47 L 268 314.29 L 272 314.29 L 276 316.47 L 280 320.00 L 284 323.53 L 288 325.71 L 292 325.71 L 296 323.53 L 300 320.00 L 304 316.47 L 308 314.29 L 312 314.29 L 316 316.47 L 320 320.00 L 324 323.53 L 328 325.71 L 332 325.71 L 336 323.53 L 340 320.00 L 344 316.47 L 348 314.29 L 352 314.29 L 356 316.47 L 360 320.00 L 364 323.53 L 368 325.71 L 372 325.71 L 376 323.53 L 380 320.00 L 384 316.47 L 388 314.29 L 392 314.29 L 396 316.47 L 400 320.00" stroke="#1A0A02" stroke-width="3.5" fill="none" opacity="0.9" stroke-linecap="round"/>
<path d="M 0 320.00 L 4 323.53 L 8 325.71 L 12 325.71 L 16 323.53 L 20 320.00 L 24 316.47 L 28 314.29 L 32 314.29 L 36 316.47 L 40 320.00 L 44 323.53 L 48 325.71 L 52 325.71 L 56 323.53 L 60 320.00 L 64 316.47 L 68 314.29 L 72 314.29 L 76 316.47 L 80 320.00 L 84 323.53 L 88 325.71 L 92 325.71 L 96 323.53 L 100 320.00 L 104 316.47 L 108 314.29 L 112 314.29 L 116 316.47 L 120 320.00 L 124 323.53 L 128 325.71 L 132 325.71 L 136 323.53 L 140 320.00 L 144 316.47 L 148 314.29 L 152 314.29 L 156 316.47 L 160 320.00 L 164 323.53 L 168 325.71 L 172 325.71 L 176 323.53 L 180 320.00 L 184 316.47 L 188 314.29 L 192 314.29 L 196 316.47 L 200 320.00 L 204 323.53 L 208 325.71 L 212 325.71 L 216 323.53 L 220 320.00 L 224 316.47 L 228 314.29 L 232 314.29 L 236 316.47 L 240 320.00 L 244 323.53 L 248 325.71 L 252 325.71 L 256 323.53 L 260 320.00 L 264 316.47 L 268 314.29 L 272 314.29 L 276 316.47 L 280 320.00 L 284 323.53 L 288 325.71 L 292 325.71 L 296 323.53 L 300 320.00 L 304 316.47 L 308 314.29 L 312 314.29 L 316 316.47 L 320 320.00 L 324 323.53 L 328 325.71 L 332 325.71 L 336 323.53 L 340 320.00 L 344 316.47 L 348 314.29 L 352 314.29 L 356 316.47 L 360 320.00 L 364 323.53 L 368 325.71 L 372 325.71 L 376 323.53 L 380 320.00 L 384 316.47 L 388 314.29 L 392 314.29 L 396 316.47 L 400 320.00" stroke="#3E2010" stroke-width="1.8" fill="none" opacity="0.85" stroke-linecap="round"/>
<path d="M 0 326.00 L 4 324.85 L 8 321.85 L 12 318.15 L 16 315.15 L 20 314.00 L 24 315.15 L 28 318.15 L 32 321.85 L 36 324.85 L 40 326.00 L 44 324.85 L 48 321.85 L 52 318.15 L 56 315.15 L 60 314.00 L 64 315.15 L 68 318.15 L 72 321.85 L 76 324.85 L 80 326.00 L 84 324.85 L 88 321.85 L 92 318.15 L 96 315.15 L 100 314.00 L 104 315.15 L 108 318.15 L 112 321.85 L 116 324.85 L 120 326.00 L 124 324.85 L 128 321.85 L 132 318.15 L 136 315.15 L 140 314.00 L 144 315.15 L 148 318.15 L 152 321.85 L 156 324.85 L 160 326.00 L 164 324.85 L 168 321.85 L 172 318.15 L 176 315.15 L 180 314.00 L 184 315.15 L 188 318.15 L 192 321.85 L 196 324.85 L 200 326.00 L 204 324.85 L 208 321.85 L 212 318.15 L 216 315.15 L 220 314.00 L 224 315.15 L 228 318.15 L 232 321.85 L 236 324.85 L 240 326.00 L 244 324.85 L 248 321.85 L 252 318.15 L 256 315.15 L 260 314.00 L 264 315.15 L 268 318.15 L 272 321.85 L 276 324.85 L 280 326.00 L 284 324.85 L 288 321.85 L 292 318.15 L 296 315.15 L 300 314.00 L 304 315.15 L 308 318.15 L 312 321.85 L 316 324.85 L 320 326.00 L 324 324.85 L 328 321.85 L 332 318.15 L 336 315.15 L 340 314.00 L 344 315.15 L 348 318.15 L 352 321.85 L 356 324.85 L 360 326.00 L 364 324.85 L 368 321.85 L 372 318.15 L 376 315.15 L 380 314.00 L 384 315.15 L 388 318.15 L 392 321.85 L 396 324.85 L 400 326.00" stroke="#1A0A02" stroke-width="3.5" fill="none" opacity="0.9" stroke-linecap="round"/>
<path d="M 0 326.00 L 4 324.85 L 8 321.85 L 12 318.15 L 16 315.15 L 20 314.00 L 24 315.15 L 28 318.15 L 32 321.85 L 36 324.85 L 40 326.00 L 44 324.85 L 48 321.85 L 52 318.15 L 56 315.15 L 60 314.00 L 64 315.15 L 68 318.15 L 72 321.85 L 76 324.85 L 80 326.00 L 84 324.85 L 88 321.85 L 92 318.15 L 96 315.15 L 100 314.00 L 104 315.15 L 108 318.15 L 112 321.85 L 116 324.85 L 120 326.00 L 124 324.85 L 128 321.85 L 132 318.15 L 136 315.15 L 140 314.00 L 144 315.15 L 148 318.15 L 152 321.85 L 156 324.85 L 160 326.00 L 164 324.85 L 168 321.85 L 172 318.15 L 176 315.15 L 180 314.00 L 184 315.15 L 188 318.15 L 192 321.85 L 196 324.85 L 200 326.00 L 204 324.85 L 208 321.85 L 212 318.15 L 216 315.15 L 220 314.00 L 224 315.15 L 228 318.15 L 232 321.85 L 236 324.85 L 240 326.00 L 244 324.85 L 248 321.85 L 252 318.15 L 256 315.15 L 260 314.00 L 264 315.15 L 268 318.15 L 272 321.85 L 276 324.85 L 280 326.00 L 284 324.85 L 288 321.85 L 292 318.15 L 296 315.15 L 300 314.00 L 304 315.15 L 308 318.15 L 312 321.85 L 316 324.85 L 320 326.00 L 324 324.85 L 328 321.85 L 332 318.15 L 336 315.15 L 340 314.00 L 344 315.15 L 348 318.15 L 352 321.85 L 356 324.85 L 360 326.00 L 364 324.85 L 368 321.85 L 372 318.15 L 376 315.15 L 380 314.00 L 384 315.15 L 388 318.15 L 392 321.85 L 396 324.85 L 400 326.00" stroke="#4A2814" stroke-width="1.8" fill="none" opacity="0.85" stroke-linecap="round"/>
<path d="M 12 318.15 L 16 315.15 L 20 314.00 L 24 315.15 L 28 318.15" stroke="#B8863C" stroke-width="0.8" fill="none" opacity="0.7" stroke-linecap="round"/>
<path d="M 52 318.15 L 56 315.15 L 60 314.00 L 64 315.15 L 68 318.15" stroke="#B8863C" stroke-width="0.8" fill="none" opacity="0.7" stroke-linecap="round"/>
<path d="M 92 318.15 L 96 315.15 L 100 314.00 L 104 315.15 L 108 318.15" stroke="#B8863C" stroke-width="0.8" fill="none" opacity="0.7" stroke-linecap="round"/>
<path d="M 132 318.15 L 136 315.15 L 140 314.00 L 144 315.15 L 148 318.15" stroke="#B8863C" stroke-width="0.8" fill="none" opacity="0.7" stroke-linecap="round"/>
<path d="M 172 318.15 L 176 315.15 L 180 314.00 L 184 315.15 L 188 318.15" stroke="#B8863C" stroke-width="0.8" fill="none" opacity="0.7" stroke-linecap="round"/>
<path d="M 212 318.15 L 216 315.15 L 220 314.00 L 224 315.15 L 228 318.15" stroke="#B8863C" stroke-width="0.8" fill="none" opacity="0.7" stroke-linecap="round"/>
<path d="M 252 318.15 L 256 315.15 L 260 314.00 L 264 315.15 L 268 318.15" stroke="#B8863C" stroke-width="0.8" fill="none" opacity="0.7" stroke-linecap="round"/>
<path d="M 292 318.15 L 296 315.15 L 300 314.00 L 304 315.15 L 308 318.15" stroke="#B8863C" stroke-width="0.8" fill="none" opacity="0.7" stroke-linecap="round"/>
<path d="M 332 318.15 L 336 315.15 L 340 314.00 L 344 315.15 L 348 318.15" stroke="#B8863C" stroke-width="0.8" fill="none" opacity="0.7" stroke-linecap="round"/>
<path d="M 372 318.15 L 376 315.15 L 380 314.00 L 384 315.15 L 388 318.15" stroke="#B8863C" stroke-width="0.8" fill="none" opacity="0.7" stroke-linecap="round"/>
<circle cx="0" cy="320" r="1.5" fill="#B8863C" opacity="0.65" stroke="#1A0A02" stroke-width="0.4"/>
<circle cx="20" cy="320" r="1.5" fill="#B8863C" opacity="0.65" stroke="#1A0A02" stroke-width="0.4"/>
<circle cx="40" cy="320" r="1.5" fill="#B8863C" opacity="0.65" stroke="#1A0A02" stroke-width="0.4"/>
<circle cx="60" cy="320" r="1.5" fill="#B8863C" opacity="0.65" stroke="#1A0A02" stroke-width="0.4"/>
<circle cx="80" cy="320" r="1.5" fill="#B8863C" opacity="0.65" stroke="#1A0A02" stroke-width="0.4"/>
<circle cx="100" cy="320" r="1.5" fill="#B8863C" opacity="0.65" stroke="#1A0A02" stroke-width="0.4"/>
<circle cx="120" cy="320" r="1.5" fill="#B8863C" opacity="0.65" stroke="#1A0A02" stroke-width="0.4"/>
<circle cx="140" cy="320" r="1.5" fill="#B8863C" opacity="0.65" stroke="#1A0A02" stroke-width="0.4"/>
<circle cx="160" cy="320" r="1.5" fill="#B8863C" opacity="0.65" stroke="#1A0A02" stroke-width="0.4"/>
<circle cx="180" cy="320" r="1.5" fill="#B8863C" opacity="0.65" stroke="#1A0A02" stroke-width="0.4"/>
<circle cx="200" cy="320" r="1.5" fill="#B8863C" opacity="0.65" stroke="#1A0A02" stroke-width="0.4"/>
<circle cx="220" cy="320" r="1.5" fill="#B8863C" opacity="0.65" stroke="#1A0A02" stroke-width="0.4"/>
<circle cx="240" cy="320" r="1.5" fill="#B8863C" opacity="0.65" stroke="#1A0A02" stroke-width="0.4"/>
<circle cx="260" cy="320" r="1.5" fill="#B8863C" opacity="0.65" stroke="#1A0A02" stroke-width="0.4"/>
<circle cx="280" cy="320" r="1.5" fill="#B8863C" opacity="0.65" stroke="#1A0A02" stroke-width="0.4"/>
<circle cx="300" cy="320" r="1.5" fill="#B8863C" opacity="0.65" stroke="#1A0A02" stroke-width="0.4"/>
<circle cx="320" cy="320" r="1.5" fill="#B8863C" opacity="0.65" stroke="#1A0A02" stroke-width="0.4"/>
<circle cx="340" cy="320" r="1.5" fill="#B8863C" opacity="0.65" stroke="#1A0A02" stroke-width="0.4"/>
<circle cx="360" cy="320" r="1.5" fill="#B8863C" opacity="0.65" stroke="#1A0A02" stroke-width="0.4"/>
<circle cx="380" cy="320" r="1.5" fill="#B8863C" opacity="0.65" stroke="#1A0A02" stroke-width="0.4"/>
<circle cx="400" cy="320" r="1.5" fill="#B8863C" opacity="0.65" stroke="#1A0A02" stroke-width="0.4"/>
<path d="M 0 0.00 L 4 3.53 L 8 5.71 L 12 5.71 L 16 3.53 L 20 0.00 L 24 -3.53 L 28 -5.71 L 32 -5.71 L 36 -3.53 L 40 -0.00 L 44 3.53 L 48 5.71 L 52 5.71 L 56 3.53 L 60 0.00 L 64 -3.53 L 68 -5.71 L 72 -5.71 L 76 -3.53 L 80 -0.00 L 84 3.53 L 88 5.71 L 92 5.71 L 96 3.53 L 100 0.00 L 104 -3.53 L 108 -5.71 L 112 -5.71 L 116 -3.53 L 120 -0.00 L 124 3.53 L 128 5.71 L 132 5.71 L 136 3.53 L 140 0.00 L 144 -3.53 L 148 -5.71 L 152 -5.71 L 156 -3.53 L 160 -0.00 L 164 3.53 L 168 5.71 L 172 5.71 L 176 3.53 L 180 0.00 L 184 -3.53 L 188 -5.71 L 192 -5.71 L 196 -3.53 L 200 -0.00 L 204 3.53 L 208 5.71 L 212 5.71 L 216 3.53 L 220 0.00 L 224 -3.53 L 228 -5.71 L 232 -5.71 L 236 -3.53 L 240 -0.00 L 244 3.53 L 248 5.71 L 252 5.71 L 256 3.53 L 260 -0.00 L 264 -3.53 L 268 -5.71 L 272 -5.71 L 276 -3.53 L 280 -0.00 L 284 3.53 L 288 5.71 L 292 5.71 L 296 3.53 L 300 0.00 L 304 -3.53 L 308 -5.71 L 312 -5.71 L 316 -3.53 L 320 -0.00 L 324 3.53 L 328 5.71 L 332 5.71 L 336 3.53 L 340 -0.00 L 344 -3.53 L 348 -5.71 L 352 -5.71 L 356 -3.53 L 360 -0.00 L 364 3.53 L 368 5.71 L 372 5.71 L 376 3.53 L 380 0.00 L 384 -3.53 L 388 -5.71 L 392 -5.71 L 396 -3.53 L 400 -0.00" stroke="#1A0A02" stroke-width="3.5" fill="none" opacity="0.9" stroke-linecap="round"/>
<path d="M 0 0.00 L 4 3.53 L 8 5.71 L 12 5.71 L 16 3.53 L 20 0.00 L 24 -3.53 L 28 -5.71 L 32 -5.71 L 36 -3.53 L 40 -0.00 L 44 3.53 L 48 5.71 L 52 5.71 L 56 3.53 L 60 0.00 L 64 -3.53 L 68 -5.71 L 72 -5.71 L 76 -3.53 L 80 -0.00 L 84 3.53 L 88 5.71 L 92 5.71 L 96 3.53 L 100 0.00 L 104 -3.53 L 108 -5.71 L 112 -5.71 L 116 -3.53 L 120 -0.00 L 124 3.53 L 128 5.71 L 132 5.71 L 136 3.53 L 140 0.00 L 144 -3.53 L 148 -5.71 L 152 -5.71 L 156 -3.53 L 160 -0.00 L 164 3.53 L 168 5.71 L 172 5.71 L 176 3.53 L 180 0.00 L 184 -3.53 L 188 -5.71 L 192 -5.71 L 196 -3.53 L 200 -0.00 L 204 3.53 L 208 5.71 L 212 5.71 L 216 3.53 L 220 0.00 L 224 -3.53 L 228 -5.71 L 232 -5.71 L 236 -3.53 L 240 -0.00 L 244 3.53 L 248 5.71 L 252 5.71 L 256 3.53 L 260 -0.00 L 264 -3.53 L 268 -5.71 L 272 -5.71 L 276 -3.53 L 280 -0.00 L 284 3.53 L 288 5.71 L 292 5.71 L 296 3.53 L 300 0.00 L 304 -3.53 L 308 -5.71 L 312 -5.71 L 316 -3.53 L 320 -0.00 L 324 3.53 L 328 5.71 L 332 5.71 L 336 3.53 L 340 -0.00 L 344 -3.53 L 348 -5.71 L 352 -5.71 L 356 -3.53 L 360 -0.00 L 364 3.53 L 368 5.71 L 372 5.71 L 376 3.53 L 380 0.00 L 384 -3.53 L 388 -5.71 L 392 -5.71 L 396 -3.53 L 400 -0.00" stroke="#3E2010" stroke-width="1.8" fill="none" opacity="0.85" stroke-linecap="round"/>
<path d="M 0 6.00 L 4 4.85 L 8 1.85 L 12 -1.85 L 16 -4.85 L 20 -6.00 L 24 -4.85 L 28 -1.85 L 32 1.85 L 36 4.85 L 40 6.00 L 44 4.85 L 48 1.85 L 52 -1.85 L 56 -4.85 L 60 -6.00 L 64 -4.85 L 68 -1.85 L 72 1.85 L 76 4.85 L 80 6.00 L 84 4.85 L 88 1.85 L 92 -1.85 L 96 -4.85 L 100 -6.00 L 104 -4.85 L 108 -1.85 L 112 1.85 L 116 4.85 L 120 6.00 L 124 4.85 L 128 1.85 L 132 -1.85 L 136 -4.85 L 140 -6.00 L 144 -4.85 L 148 -1.85 L 152 1.85 L 156 4.85 L 160 6.00 L 164 4.85 L 168 1.85 L 172 -1.85 L 176 -4.85 L 180 -6.00 L 184 -4.85 L 188 -1.85 L 192 1.85 L 196 4.85 L 200 6.00 L 204 4.85 L 208 1.85 L 212 -1.85 L 216 -4.85 L 220 -6.00 L 224 -4.85 L 228 -1.85 L 232 1.85 L 236 4.85 L 240 6.00 L 244 4.85 L 248 1.85 L 252 -1.85 L 256 -4.85 L 260 -6.00 L 264 -4.85 L 268 -1.85 L 272 1.85 L 276 4.85 L 280 6.00 L 284 4.85 L 288 1.85 L 292 -1.85 L 296 -4.85 L 300 -6.00 L 304 -4.85 L 308 -1.85 L 312 1.85 L 316 4.85 L 320 6.00 L 324 4.85 L 328 1.85 L 332 -1.85 L 336 -4.85 L 340 -6.00 L 344 -4.85 L 348 -1.85 L 352 1.85 L 356 4.85 L 360 6.00 L 364 4.85 L 368 1.85 L 372 -1.85 L 376 -4.85 L 380 -6.00 L 384 -4.85 L 388 -1.85 L 392 1.85 L 396 4.85 L 400 6.00" stroke="#1A0A02" stroke-width="3.5" fill="none" opacity="0.9" stroke-linecap="round"/>
<path d="M 0 6.00 L 4 4.85 L 8 1.85 L 12 -1.85 L 16 -4.85 L 20 -6.00 L 24 -4.85 L 28 -1.85 L 32 1.85 L 36 4.85 L 40 6.00 L 44 4.85 L 48 1.85 L 52 -1.85 L 56 -4.85 L 60 -6.00 L 64 -4.85 L 68 -1.85 L 72 1.85 L 76 4.85 L 80 6.00 L 84 4.85 L 88 1.85 L 92 -1.85 L 96 -4.85 L 100 -6.00 L 104 -4.85 L 108 -1.85 L 112 1.85 L 116 4.85 L 120 6.00 L 124 4.85 L 128 1.85 L 132 -1.85 L 136 -4.85 L 140 -6.00 L 144 -4.85 L 148 -1.85 L 152 1.85 L 156 4.85 L 160 6.00 L 164 4.85 L 168 1.85 L 172 -1.85 L 176 -4.85 L 180 -6.00 L 184 -4.85 L 188 -1.85 L 192 1.85 L 196 4.85 L 200 6.00 L 204 4.85 L 208 1.85 L 212 -1.85 L 216 -4.85 L 220 -6.00 L 224 -4.85 L 228 -1.85 L 232 1.85 L 236 4.85 L 240 6.00 L 244 4.85 L 248 1.85 L 252 -1.85 L 256 -4.85 L 260 -6.00 L 264 -4.85 L 268 -1.85 L 272 1.85 L 276 4.85 L 280 6.00 L 284 4.85 L 288 1.85 L 292 -1.85 L 296 -4.85 L 300 -6.00 L 304 -4.85 L 308 -1.85 L 312 1.85 L 316 4.85 L 320 6.00 L 324 4.85 L 328 1.85 L 332 -1.85 L 336 -4.85 L 340 -6.00 L 344 -4.85 L 348 -1.85 L 352 1.85 L 356 4.85 L 360 6.00 L 364 4.85 L 368 1.85 L 372 -1.85 L 376 -4.85 L 380 -6.00 L 384 -4.85 L 388 -1.85 L 392 1.85 L 396 4.85 L 400 6.00" stroke="#4A2814" stroke-width="1.8" fill="none" opacity="0.85" stroke-linecap="round"/>
<path d="M 12 -1.85 L 16 -4.85 L 20 -6.00 L 24 -4.85 L 28 -1.85" stroke="#B8863C" stroke-width="0.8" fill="none" opacity="0.7" stroke-linecap="round"/>
<path d="M 52 -1.85 L 56 -4.85 L 60 -6.00 L 64 -4.85 L 68 -1.85" stroke="#B8863C" stroke-width="0.8" fill="none" opacity="0.7" stroke-linecap="round"/>
<path d="M 92 -1.85 L 96 -4.85 L 100 -6.00 L 104 -4.85 L 108 -1.85" stroke="#B8863C" stroke-width="0.8" fill="none" opacity="0.7" stroke-linecap="round"/>
<path d="M 132 -1.85 L 136 -4.85 L 140 -6.00 L 144 -4.85 L 148 -1.85" stroke="#B8863C" stroke-width="0.8" fill="none" opacity="0.7" stroke-linecap="round"/>
<path d="M 172 -1.85 L 176 -4.85 L 180 -6.00 L 184 -4.85 L 188 -1.85" stroke="#B8863C" stroke-width="0.8" fill="none" opacity="0.7" stroke-linecap="round"/>
<path d="M 212 -1.85 L 216 -4.85 L 220 -6.00 L 224 -4.85 L 228 -1.85" stroke="#B8863C" stroke-width="0.8" fill="none" opacity="0.7" stroke-linecap="round"/>
<path d="M 252 -1.85 L 256 -4.85 L 260 -6.00 L 264 -4.85 L 268 -1.85" stroke="#B8863C" stroke-width="0.8" fill="none" opacity="0.7" stroke-linecap="round"/>
<path d="M 292 -1.85 L 296 -4.85 L 300 -6.00 L 304 -4.85 L 308 -1.85" stroke="#B8863C" stroke-width="0.8" fill="none" opacity="0.7" stroke-linecap="round"/>
<path d="M 332 -1.85 L 336 -4.85 L 340 -6.00 L 344 -4.85 L 348 -1.85" stroke="#B8863C" stroke-width="0.8" fill="none" opacity="0.7" stroke-linecap="round"/>
<path d="M 372 -1.85 L 376 -4.85 L 380 -6.00 L 384 -4.85 L 388 -1.85" stroke="#B8863C" stroke-width="0.8" fill="none" opacity="0.7" stroke-linecap="round"/>
<circle cx="0" cy="0" r="1.5" fill="#B8863C" opacity="0.65" stroke="#1A0A02" stroke-width="0.4"/>
<circle cx="20" cy="0" r="1.5" fill="#B8863C" opacity="0.65" stroke="#1A0A02" stroke-width="0.4"/>
<circle cx="40" cy="0" r="1.5" fill="#B8863C" opacity="0.65" stroke="#1A0A02" stroke-width="0.4"/>
<circle cx="60" cy="0" r="1.5" fill="#B8863C" opacity="0.65" stroke="#1A0A02" stroke-width="0.4"/>
<circle cx="80" cy="0" r="1.5" fill="#B8863C" opacity="0.65" stroke="#1A0A02" stroke-width="0.4"/>
<circle cx="100" cy="0" r="1.5" fill="#B8863C" opacity="0.65" stroke="#1A0A02" stroke-width="0.4"/>
<circle cx="120" cy="0" r="1.5" fill="#B8863C" opacity="0.65" stroke="#1A0A02" stroke-width="0.4"/>
<circle cx="140" cy="0" r="1.5" fill="#B8863C" opacity="0.65" stroke="#1A0A02" stroke-width="0.4"/>
<circle cx="160" cy="0" r="1.5" fill="#B8863C" opacity="0.65" stroke="#1A0A02" stroke-width="0.4"/>
<circle cx="180" cy="0" r="1.5" fill="#B8863C" opacity="0.65" stroke="#1A0A02" stroke-width="0.4"/>
<circle cx="200" cy="0" r="1.5" fill="#B8863C" opacity="0.65" stroke="#1A0A02" stroke-width="0.4"/>
<circle cx="220" cy="0" r="1.5" fill="#B8863C" opacity="0.65" stroke="#1A0A02" stroke-width="0.4"/>
<circle cx="240" cy="0" r="1.5" fill="#B8863C" opacity="0.65" stroke="#1A0A02" stroke-width="0.4"/>
<circle cx="260" cy="0" r="1.5" fill="#B8863C" opacity="0.65" stroke="#1A0A02" stroke-width="0.4"/>
<circle cx="280" cy="0" r="1.5" fill="#B8863C" opacity="0.65" stroke="#1A0A02" stroke-width="0.4"/>
<circle cx="300" cy="0" r="1.5" fill="#B8863C" opacity="0.65" stroke="#1A0A02" stroke-width="0.4"/>
<circle cx="320" cy="0" r="1.5" fill="#B8863C" opacity="0.65" stroke="#1A0A02" stroke-width="0.4"/>
<circle cx="340" cy="0" r="1.5" fill="#B8863C" opacity="0.65" stroke="#1A0A02" stroke-width="0.4"/>
<circle cx="360" cy="0" r="1.5" fill="#B8863C" opacity="0.65" stroke="#1A0A02" stroke-width="0.4"/>
<circle cx="380" cy="0" r="1.5" fill="#B8863C" opacity="0.65" stroke="#1A0A02" stroke-width="0.4"/>
<circle cx="400" cy="0" r="1.5" fill="#B8863C" opacity="0.65" stroke="#1A0A02" stroke-width="0.4"/>
<path d="M 0 400.00 L 4 403.53 L 8 405.71 L 12 405.71 L 16 403.53 L 20 400.00 L 24 396.47 L 28 394.29 L 32 394.29 L 36 396.47 L 40 400.00 L 44 403.53 L 48 405.71 L 52 405.71 L 56 403.53 L 60 400.00 L 64 396.47 L 68 394.29 L 72 394.29 L 76 396.47 L 80 400.00 L 84 403.53 L 88 405.71 L 92 405.71 L 96 403.53 L 100 400.00 L 104 396.47 L 108 394.29 L 112 394.29 L 116 396.47 L 120 400.00 L 124 403.53 L 128 405.71 L 132 405.71 L 136 403.53 L 140 400.00 L 144 396.47 L 148 394.29 L 152 394.29 L 156 396.47 L 160 400.00 L 164 403.53 L 168 405.71 L 172 405.71 L 176 403.53 L 180 400.00 L 184 396.47 L 188 394.29 L 192 394.29 L 196 396.47 L 200 400.00 L 204 403.53 L 208 405.71 L 212 405.71 L 216 403.53 L 220 400.00 L 224 396.47 L 228 394.29 L 232 394.29 L 236 396.47 L 240 400.00 L 244 403.53 L 248 405.71 L 252 405.71 L 256 403.53 L 260 400.00 L 264 396.47 L 268 394.29 L 272 394.29 L 276 396.47 L 280 400.00 L 284 403.53 L 288 405.71 L 292 405.71 L 296 403.53 L 300 400.00 L 304 396.47 L 308 394.29 L 312 394.29 L 316 396.47 L 320 400.00 L 324 403.53 L 328 405.71 L 332 405.71 L 336 403.53 L 340 400.00 L 344 396.47 L 348 394.29 L 352 394.29 L 356 396.47 L 360 400.00 L 364 403.53 L 368 405.71 L 372 405.71 L 376 403.53 L 380 400.00 L 384 396.47 L 388 394.29 L 392 394.29 L 396 396.47 L 400 400.00" stroke="#1A0A02" stroke-width="3.5" fill="none" opacity="0.9" stroke-linecap="round"/>
<path d="M 0 400.00 L 4 403.53 L 8 405.71 L 12 405.71 L 16 403.53 L 20 400.00 L 24 396.47 L 28 394.29 L 32 394.29 L 36 396.47 L 40 400.00 L 44 403.53 L 48 405.71 L 52 405.71 L 56 403.53 L 60 400.00 L 64 396.47 L 68 394.29 L 72 394.29 L 76 396.47 L 80 400.00 L 84 403.53 L 88 405.71 L 92 405.71 L 96 403.53 L 100 400.00 L 104 396.47 L 108 394.29 L 112 394.29 L 116 396.47 L 120 400.00 L 124 403.53 L 128 405.71 L 132 405.71 L 136 403.53 L 140 400.00 L 144 396.47 L 148 394.29 L 152 394.29 L 156 396.47 L 160 400.00 L 164 403.53 L 168 405.71 L 172 405.71 L 176 403.53 L 180 400.00 L 184 396.47 L 188 394.29 L 192 394.29 L 196 396.47 L 200 400.00 L 204 403.53 L 208 405.71 L 212 405.71 L 216 403.53 L 220 400.00 L 224 396.47 L 228 394.29 L 232 394.29 L 236 396.47 L 240 400.00 L 244 403.53 L 248 405.71 L 252 405.71 L 256 403.53 L 260 400.00 L 264 396.47 L 268 394.29 L 272 394.29 L 276 396.47 L 280 400.00 L 284 403.53 L 288 405.71 L 292 405.71 L 296 403.53 L 300 400.00 L 304 396.47 L 308 394.29 L 312 394.29 L 316 396.47 L 320 400.00 L 324 403.53 L 328 405.71 L 332 405.71 L 336 403.53 L 340 400.00 L 344 396.47 L 348 394.29 L 352 394.29 L 356 396.47 L 360 400.00 L 364 403.53 L 368 405.71 L 372 405.71 L 376 403.53 L 380 400.00 L 384 396.47 L 388 394.29 L 392 394.29 L 396 396.47 L 400 400.00" stroke="#3E2010" stroke-width="1.8" fill="none" opacity="0.85" stroke-linecap="round"/>
<path d="M 0 406.00 L 4 404.85 L 8 401.85 L 12 398.15 L 16 395.15 L 20 394.00 L 24 395.15 L 28 398.15 L 32 401.85 L 36 404.85 L 40 406.00 L 44 404.85 L 48 401.85 L 52 398.15 L 56 395.15 L 60 394.00 L 64 395.15 L 68 398.15 L 72 401.85 L 76 404.85 L 80 406.00 L 84 404.85 L 88 401.85 L 92 398.15 L 96 395.15 L 100 394.00 L 104 395.15 L 108 398.15 L 112 401.85 L 116 404.85 L 120 406.00 L 124 404.85 L 128 401.85 L 132 398.15 L 136 395.15 L 140 394.00 L 144 395.15 L 148 398.15 L 152 401.85 L 156 404.85 L 160 406.00 L 164 404.85 L 168 401.85 L 172 398.15 L 176 395.15 L 180 394.00 L 184 395.15 L 188 398.15 L 192 401.85 L 196 404.85 L 200 406.00 L 204 404.85 L 208 401.85 L 212 398.15 L 216 395.15 L 220 394.00 L 224 395.15 L 228 398.15 L 232 401.85 L 236 404.85 L 240 406.00 L 244 404.85 L 248 401.85 L 252 398.15 L 256 395.15 L 260 394.00 L 264 395.15 L 268 398.15 L 272 401.85 L 276 404.85 L 280 406.00 L 284 404.85 L 288 401.85 L 292 398.15 L 296 395.15 L 300 394.00 L 304 395.15 L 308 398.15 L 312 401.85 L 316 404.85 L 320 406.00 L 324 404.85 L 328 401.85 L 332 398.15 L 336 395.15 L 340 394.00 L 344 395.15 L 348 398.15 L 352 401.85 L 356 404.85 L 360 406.00 L 364 404.85 L 368 401.85 L 372 398.15 L 376 395.15 L 380 394.00 L 384 395.15 L 388 398.15 L 392 401.85 L 396 404.85 L 400 406.00" stroke="#1A0A02" stroke-width="3.5" fill="none" opacity="0.9" stroke-linecap="round"/>
<path d="M 0 406.00 L 4 404.85 L 8 401.85 L 12 398.15 L 16 395.15 L 20 394.00 L 24 395.15 L 28 398.15 L 32 401.85 L 36 404.85 L 40 406.00 L 44 404.85 L 48 401.85 L 52 398.15 L 56 395.15 L 60 394.00 L 64 395.15 L 68 398.15 L 72 401.85 L 76 404.85 L 80 406.00 L 84 404.85 L 88 401.85 L 92 398.15 L 96 395.15 L 100 394.00 L 104 395.15 L 108 398.15 L 112 401.85 L 116 404.85 L 120 406.00 L 124 404.85 L 128 401.85 L 132 398.15 L 136 395.15 L 140 394.00 L 144 395.15 L 148 398.15 L 152 401.85 L 156 404.85 L 160 406.00 L 164 404.85 L 168 401.85 L 172 398.15 L 176 395.15 L 180 394.00 L 184 395.15 L 188 398.15 L 192 401.85 L 196 404.85 L 200 406.00 L 204 404.85 L 208 401.85 L 212 398.15 L 216 395.15 L 220 394.00 L 224 395.15 L 228 398.15 L 232 401.85 L 236 404.85 L 240 406.00 L 244 404.85 L 248 401.85 L 252 398.15 L 256 395.15 L 260 394.00 L 264 395.15 L 268 398.15 L 272 401.85 L 276 404.85 L 280 406.00 L 284 404.85 L 288 401.85 L 292 398.15 L 296 395.15 L 300 394.00 L 304 395.15 L 308 398.15 L 312 401.85 L 316 404.85 L 320 406.00 L 324 404.85 L 328 401.85 L 332 398.15 L 336 395.15 L 340 394.00 L 344 395.15 L 348 398.15 L 352 401.85 L 356 404.85 L 360 406.00 L 364 404.85 L 368 401.85 L 372 398.15 L 376 395.15 L 380 394.00 L 384 395.15 L 388 398.15 L 392 401.85 L 396 404.85 L 400 406.00" stroke="#4A2814" stroke-width="1.8" fill="none" opacity="0.85" stroke-linecap="round"/>
<path d="M 12 398.15 L 16 395.15 L 20 394.00 L 24 395.15 L 28 398.15" stroke="#B8863C" stroke-width="0.8" fill="none" opacity="0.7" stroke-linecap="round"/>
<path d="M 52 398.15 L 56 395.15 L 60 394.00 L 64 395.15 L 68 398.15" stroke="#B8863C" stroke-width="0.8" fill="none" opacity="0.7" stroke-linecap="round"/>
<path d="M 92 398.15 L 96 395.15 L 100 394.00 L 104 395.15 L 108 398.15" stroke="#B8863C" stroke-width="0.8" fill="none" opacity="0.7" stroke-linecap="round"/>
<path d="M 132 398.15 L 136 395.15 L 140 394.00 L 144 395.15 L 148 398.15" stroke="#B8863C" stroke-width="0.8" fill="none" opacity="0.7" stroke-linecap="round"/>
<path d="M 172 398.15 L 176 395.15 L 180 394.00 L 184 395.15 L 188 398.15" stroke="#B8863C" stroke-width="0.8" fill="none" opacity="0.7" stroke-linecap="round"/>
<path d="M 212 398.15 L 216 395.15 L 220 394.00 L 224 395.15 L 228 398.15" stroke="#B8863C" stroke-width="0.8" fill="none" opacity="0.7" stroke-linecap="round"/>
<path d="M 252 398.15 L 256 395.15 L 260 394.00 L 264 395.15 L 268 398.15" stroke="#B8863C" stroke-width="0.8" fill="none" opacity="0.7" stroke-linecap="round"/>
<path d="M 292 398.15 L 296 395.15 L 300 394.00 L 304 395.15 L 308 398.15" stroke="#B8863C" stroke-width="0.8" fill="none" opacity="0.7" stroke-linecap="round"/>
<path d="M 332 398.15 L 336 395.15 L 340 394.00 L 344 395.15 L 348 398.15" stroke="#B8863C" stroke-width="0.8" fill="none" opacity="0.7" stroke-linecap="round"/>
<path d="M 372 398.15 L 376 395.15 L 380 394.00 L 384 395.15 L 388 398.15" stroke="#B8863C" stroke-width="0.8" fill="none" opacity="0.7" stroke-linecap="round"/>
<circle cx="0" cy="400" r="1.5" fill="#B8863C" opacity="0.65" stroke="#1A0A02" stroke-width="0.4"/>
<circle cx="20" cy="400" r="1.5" fill="#B8863C" opacity="0.65" stroke="#1A0A02" stroke-width="0.4"/>
<circle cx="40" cy="400" r="1.5" fill="#B8863C" opacity="0.65" stroke="#1A0A02" stroke-width="0.4"/>
<circle cx="60" cy="400" r="1.5" fill="#B8863C" opacity="0.65" stroke="#1A0A02" stroke-width="0.4"/>
<circle cx="80" cy="400" r="1.5" fill="#B8863C" opacity="0.65" stroke="#1A0A02" stroke-width="0.4"/>
<circle cx="100" cy="400" r="1.5" fill="#B8863C" opacity="0.65" stroke="#1A0A02" stroke-width="0.4"/>
<circle cx="120" cy="400" r="1.5" fill="#B8863C" opacity="0.65" stroke="#1A0A02" stroke-width="0.4"/>
<circle cx="140" cy="400" r="1.5" fill="#B8863C" opacity="0.65" stroke="#1A0A02" stroke-width="0.4"/>
<circle cx="160" cy="400" r="1.5" fill="#B8863C" opacity="0.65" stroke="#1A0A02" stroke-width="0.4"/>
<circle cx="180" cy="400" r="1.5" fill="#B8863C" opacity="0.65" stroke="#1A0A02" stroke-width="0.4"/>
<circle cx="200" cy="400" r="1.5" fill="#B8863C" opacity="0.65" stroke="#1A0A02" stroke-width="0.4"/>
<circle cx="220" cy="400" r="1.5" fill="#B8863C" opacity="0.65" stroke="#1A0A02" stroke-width="0.4"/>
<circle cx="240" cy="400" r="1.5" fill="#B8863C" opacity="0.65" stroke="#1A0A02" stroke-width="0.4"/>
<circle cx="260" cy="400" r="1.5" fill="#B8863C" opacity="0.65" stroke="#1A0A02" stroke-width="0.4"/>
<circle cx="280" cy="400" r="1.5" fill="#B8863C" opacity="0.65" stroke="#1A0A02" stroke-width="0.4"/>
<circle cx="300" cy="400" r="1.5" fill="#B8863C" opacity="0.65" stroke="#1A0A02" stroke-width="0.4"/>
<circle cx="320" cy="400" r="1.5" fill="#B8863C" opacity="0.65" stroke="#1A0A02" stroke-width="0.4"/>
<circle cx="340" cy="400" r="1.5" fill="#B8863C" opacity="0.65" stroke="#1A0A02" stroke-width="0.4"/>
<circle cx="360" cy="400" r="1.5" fill="#B8863C" opacity="0.65" stroke="#1A0A02" stroke-width="0.4"/>
<circle cx="380" cy="400" r="1.5" fill="#B8863C" opacity="0.65" stroke="#1A0A02" stroke-width="0.4"/>
<circle cx="400" cy="400" r="1.5" fill="#B8863C" opacity="0.65" stroke="#1A0A02" stroke-width="0.4"/>
<circle cx="10" cy="80" r="2.2" fill="#2A2A30" stroke="#1A1A20" stroke-width="0.4" opacity="0.95"/>
<circle cx="9.5" cy="79.5" r="0.7" fill="#8A8A92" opacity="0.65"/>
<circle cx="110" cy="80" r="2.2" fill="#2A2A30" stroke="#1A1A20" stroke-width="0.4" opacity="0.95"/>
<circle cx="109.5" cy="79.5" r="0.7" fill="#8A8A92" opacity="0.65"/>
<circle cx="210" cy="80" r="2.2" fill="#2A2A30" stroke="#1A1A20" stroke-width="0.4" opacity="0.95"/>
<circle cx="209.5" cy="79.5" r="0.7" fill="#8A8A92" opacity="0.65"/>
<circle cx="310" cy="80" r="2.2" fill="#2A2A30" stroke="#1A1A20" stroke-width="0.4" opacity="0.95"/>
<circle cx="309.5" cy="79.5" r="0.7" fill="#8A8A92" opacity="0.65"/>
<circle cx="390" cy="80" r="2.2" fill="#2A2A30" stroke="#1A1A20" stroke-width="0.4" opacity="0.95"/>
<circle cx="389.5" cy="79.5" r="0.7" fill="#8A8A92" opacity="0.65"/>
<circle cx="10" cy="160" r="2.2" fill="#2A2A30" stroke="#1A1A20" stroke-width="0.4" opacity="0.95"/>
<circle cx="9.5" cy="159.5" r="0.7" fill="#8A8A92" opacity="0.65"/>
<circle cx="110" cy="160" r="2.2" fill="#2A2A30" stroke="#1A1A20" stroke-width="0.4" opacity="0.95"/>
<circle cx="109.5" cy="159.5" r="0.7" fill="#8A8A92" opacity="0.65"/>
<circle cx="210" cy="160" r="2.2" fill="#2A2A30" stroke="#1A1A20" stroke-width="0.4" opacity="0.95"/>
<circle cx="209.5" cy="159.5" r="0.7" fill="#8A8A92" opacity="0.65"/>
<circle cx="310" cy="160" r="2.2" fill="#2A2A30" stroke="#1A1A20" stroke-width="0.4" opacity="0.95"/>
<circle cx="309.5" cy="159.5" r="0.7" fill="#8A8A92" opacity="0.65"/>
<circle cx="390" cy="160" r="2.2" fill="#2A2A30" stroke="#1A1A20" stroke-width="0.4" opacity="0.95"/>
<circle cx="389.5" cy="159.5" r="0.7" fill="#8A8A92" opacity="0.65"/>
<circle cx="10" cy="240" r="2.2" fill="#2A2A30" stroke="#1A1A20" stroke-width="0.4" opacity="0.95"/>
<circle cx="9.5" cy="239.5" r="0.7" fill="#8A8A92" opacity="0.65"/>
<circle cx="110" cy="240" r="2.2" fill="#2A2A30" stroke="#1A1A20" stroke-width="0.4" opacity="0.95"/>
<circle cx="109.5" cy="239.5" r="0.7" fill="#8A8A92" opacity="0.65"/>
<circle cx="210" cy="240" r="2.2" fill="#2A2A30" stroke="#1A1A20" stroke-width="0.4" opacity="0.95"/>
<circle cx="209.5" cy="239.5" r="0.7" fill="#8A8A92" opacity="0.65"/>
<circle cx="310" cy="240" r="2.2" fill="#2A2A30" stroke="#1A1A20" stroke-width="0.4" opacity="0.95"/>
<circle cx="309.5" cy="239.5" r="0.7" fill="#8A8A92" opacity="0.65"/>
<circle cx="390" cy="240" r="2.2" fill="#2A2A30" stroke="#1A1A20" stroke-width="0.4" opacity="0.95"/>
<circle cx="389.5" cy="239.5" r="0.7" fill="#8A8A92" opacity="0.65"/>
<circle cx="10" cy="320" r="2.2" fill="#2A2A30" stroke="#1A1A20" stroke-width="0.4" opacity="0.95"/>
<circle cx="9.5" cy="319.5" r="0.7" fill="#8A8A92" opacity="0.65"/>
<circle cx="110" cy="320" r="2.2" fill="#2A2A30" stroke="#1A1A20" stroke-width="0.4" opacity="0.95"/>
<circle cx="109.5" cy="319.5" r="0.7" fill="#8A8A92" opacity="0.65"/>
<circle cx="210" cy="320" r="2.2" fill="#2A2A30" stroke="#1A1A20" stroke-width="0.4" opacity="0.95"/>
<circle cx="209.5" cy="319.5" r="0.7" fill="#8A8A92" opacity="0.65"/>
<circle cx="310" cy="320" r="2.2" fill="#2A2A30" stroke="#1A1A20" stroke-width="0.4" opacity="0.95"/>
<circle cx="309.5" cy="319.5" r="0.7" fill="#8A8A92" opacity="0.65"/>
<circle cx="390" cy="320" r="2.2" fill="#2A2A30" stroke="#1A1A20" stroke-width="0.4" opacity="0.95"/>
<circle cx="389.5" cy="319.5" r="0.7" fill="#8A8A92" opacity="0.65"/>
<line x1="76" y1="40" x2="84" y2="41" stroke="#1F0F04" stroke-width="0.5" opacity="0.4"/>
<ellipse cx="86" cy="44" rx="3" ry="1.5" fill="#8A5A2C" opacity="0.2"/>
<line x1="316" y1="40" x2="324" y2="41" stroke="#1F0F04" stroke-width="0.5" opacity="0.4"/>
<ellipse cx="326" cy="44" rx="3" ry="1.5" fill="#8A5A2C" opacity="0.2"/>
<line x1="56" y1="120" x2="64" y2="121" stroke="#1F0F04" stroke-width="0.5" opacity="0.4"/>
<ellipse cx="66" cy="124" rx="3" ry="1.5" fill="#8A5A2C" opacity="0.2"/>
<line x1="336" y1="120" x2="344" y2="121" stroke="#1F0F04" stroke-width="0.5" opacity="0.4"/>
<ellipse cx="346" cy="124" rx="3" ry="1.5" fill="#8A5A2C" opacity="0.2"/>
<line x1="96" y1="200" x2="104" y2="201" stroke="#1F0F04" stroke-width="0.5" opacity="0.4"/>
<ellipse cx="106" cy="204" rx="3" ry="1.5" fill="#8A5A2C" opacity="0.2"/>
<line x1="296" y1="200" x2="304" y2="201" stroke="#1F0F04" stroke-width="0.5" opacity="0.4"/>
<ellipse cx="306" cy="204" rx="3" ry="1.5" fill="#8A5A2C" opacity="0.2"/>
<line x1="56" y1="280" x2="64" y2="281" stroke="#1F0F04" stroke-width="0.5" opacity="0.4"/>
<ellipse cx="66" cy="284" rx="3" ry="1.5" fill="#8A5A2C" opacity="0.2"/>
<line x1="336" y1="280" x2="344" y2="281" stroke="#1F0F04" stroke-width="0.5" opacity="0.4"/>
<ellipse cx="346" cy="284" rx="3" ry="1.5" fill="#8A5A2C" opacity="0.2"/>
<line x1="76" y1="360" x2="84" y2="361" stroke="#1F0F04" stroke-width="0.5" opacity="0.4"/>
<ellipse cx="86" cy="364" rx="3" ry="1.5" fill="#8A5A2C" opacity="0.2"/>
<line x1="316" y1="360" x2="324" y2="361" stroke="#1F0F04" stroke-width="0.5" opacity="0.4"/>
<ellipse cx="326" cy="364" rx="3" ry="1.5" fill="#8A5A2C" opacity="0.2"/>
<ellipse cx="264.6" cy="365.5" rx="1.56" ry="1.13" fill="#1F0F04" opacity="0.33" transform="rotate(14.0 264.6 365.5)"/>
<ellipse cx="113.5" cy="194.1" rx="2.84" ry="0.85" fill="#1F0F04" opacity="0.44" transform="rotate(5.2 113.5 194.1)"/>
<ellipse cx="121.6" cy="30.7" rx="2.42" ry="1.32" fill="#1F0F04" opacity="0.33" transform="rotate(-14.5 121.6 30.7)"/>
<ellipse cx="306.7" cy="194.2" rx="1.55" ry="0.95" fill="#1F0F04" opacity="0.34" transform="rotate(12.4 306.7 194.2)"/>
<ellipse cx="139.5" cy="204.0" rx="2.05" ry="1.22" fill="#1F0F04" opacity="0.34" transform="rotate(-26.0 139.5 204.0)"/>
<ellipse cx="242.5" cy="287.8" rx="2.18" ry="1.12" fill="#1F0F04" opacity="0.36" transform="rotate(9.5 242.5 287.8)"/>
</pattern>
</defs>
<rect width="400" height="400" fill="url(#floor)"/>
</svg>