<svg xmlns="http://www.w3.org/2000/svg" width="24" height="24" viewBox="0 0 24 24">
<defs>

    <linearGradient id="chipDark" x1="0" y1="0" x2="1" y2="1">
      <stop offset="0" stop-color="#1F0F04" stop-opacity="0.95"/>
      <stop offset="1" stop-color="#0A0400"/>
    </linearGradient>
    <linearGradient id="chipLight" x1="0" y1="0" x2="1" y2="1">
      <stop offset="0" stop-color="#8A5A2C" stop-opacity="0.7"/>
      <stop offset="1" stop-color="#B87838" stop-opacity="0.5"/>
    </linearGradient>
    
</defs>
<circle cx="12.0" cy="12.0" r="11.0" fill="none" stroke="#1F0F04" stroke-width="0.6" opacity="0.7"/>
<path d="M 15.00 12.00 L 22.00 12.00 L 21.24 15.83 Z" fill="url(#chipDark)" opacity="0.9"/>
<path d="M 14.12 14.12 L 21.24 15.83 L 19.07 19.07 Z" fill="url(#chipLight)" opacity="0.85"/>
<path d="M 14.12 14.12 L 19.07 19.07 L 15.83 21.24 Z" fill="url(#chipDark)" opacity="0.9"/>
<path d="M 12.00 15.00 L 15.83 21.24 L 12.00 22.00 Z" fill="url(#chipLight)" opacity="0.85"/>
<path d="M 12.00 15.00 L 12.00 22.00 L 8.17 21.24 Z" fill="url(#chipDark)" opacity="0.9"/>
<path d="M 9.88 14.12 L 8.17 21.24 L 4.93 19.07 Z" fill="url(#chipLight)" opacity="0.85"/>
<path d="M 9.88 14.12 L 4.93 19.07 L 2.76 15.83 Z" fill="url(#chipDark)" opacity="0.9"/>
<path d="M 9.00 12.00 L 2.76 15.83 L 2.00 12.00 Z" fill="url(#chipLight)" opacity="0.85"/>
<path d="M 9.00 12.00 L 2.00 12.00 L 2.76 8.17 Z" fill="url(#chipDark)" opacity="0.9"/>
<path d="M 9.88 9.88 L 2.76 8.17 L 4.93 4.93 Z" fill="url(#chipLight)" opacity="0.85"/>
<path d="M 9.88 9.88 L 4.93 4.93 L 8.17 2.76 Z" fill="url(#chipDark)" opacity="0.9"/>
<path d="M 12.00 9.00 L 8.17 2.76 L 12.00 2.00 Z" fill="url(#chipLight)" opacity="0.85"/>
<path d="M 12.00 9.00 L 12.00 2.00 L 15.83 2.76 Z" fill="url(#chipDark)" opacity="0.9"/>
<path d="M 14.12 9.88 L 15.83 2.76 L 19.07 4.93 Z" fill="url(#chipLight)" opacity="0.85"/>
<path d="M 14.12 9.88 L 19.07 4.93 L 21.24 8.17 Z" fill="url(#chipDark)" opacity="0.9"/>
<path d="M 15.00 12.00 L 21.24 8.17 L 22.00 12.00 Z" fill="url(#chipLight)" opacity="0.85"/>
<circle cx="12.0" cy="12.0" r="2.5" fill="#7A4828" opacity="0.9"/>
<circle cx="11.5" cy="11.5" r="0.8" fill="#C8823A" opacity="0.75"/>
</svg>